%TF.GenerationSoftware,KiCad,Pcbnew,(6.0.6)*%
%TF.CreationDate,2023-05-08T18:28:51+05:30*%
%TF.ProjectId,new_stuff,6e65775f-7374-4756-9666-2e6b69636164,rev?*%
%TF.SameCoordinates,Original*%
%TF.FileFunction,Soldermask,Top*%
%TF.FilePolarity,Negative*%
%FSLAX46Y46*%
G04 Gerber Fmt 4.6, Leading zero omitted, Abs format (unit mm)*
G04 Created by KiCad (PCBNEW (6.0.6)) date 2023-05-08 18:28:51*
%MOMM*%
%LPD*%
G01*
G04 APERTURE LIST*
%ADD10C,3.987800*%
%ADD11C,3.000000*%
%ADD12C,1.750000*%
%ADD13C,3.048000*%
%ADD14O,5.100000X2.800000*%
%ADD15C,5.500000*%
%ADD16R,1.350000X1.350000*%
%ADD17O,1.350000X1.350000*%
%ADD18O,5.500000X3.000000*%
%ADD19C,0.650000*%
%ADD20O,1.000000X2.100000*%
%ADD21O,1.000000X1.600000*%
G04 APERTURE END LIST*
%TO.C,G\u002A\u002A\u002A*%
G36*
X282624986Y-50757204D02*
G01*
X282933195Y-50897390D01*
X283180340Y-51160362D01*
X283252928Y-51297783D01*
X283413141Y-51743316D01*
X283511525Y-52183237D01*
X283545106Y-52581155D01*
X283510905Y-52900682D01*
X283405945Y-53105430D01*
X283401166Y-53109878D01*
X283171871Y-53239080D01*
X282949870Y-53241385D01*
X282780599Y-53130155D01*
X282709497Y-52918750D01*
X282709333Y-52906443D01*
X282691801Y-52676930D01*
X282646948Y-52386025D01*
X282586386Y-52089935D01*
X282521727Y-51844865D01*
X282464585Y-51707020D01*
X282460508Y-51702116D01*
X282403425Y-51733714D01*
X282328826Y-51889398D01*
X282292885Y-51998449D01*
X282075628Y-52535216D01*
X281766747Y-53024015D01*
X281533427Y-53285212D01*
X281312967Y-53451845D01*
X281055233Y-53539518D01*
X280820056Y-53569715D01*
X280347253Y-53543970D01*
X279974400Y-53382832D01*
X279705157Y-53090196D01*
X279543183Y-52669959D01*
X279492000Y-52155653D01*
X279503199Y-51848925D01*
X279552275Y-51640174D01*
X279662442Y-51458680D01*
X279758568Y-51343621D01*
X280105532Y-51021394D01*
X280466888Y-50846227D01*
X280863629Y-50797667D01*
X281054379Y-50817410D01*
X281260617Y-50864493D01*
X281445139Y-50924920D01*
X281570745Y-50984693D01*
X281600233Y-51029814D01*
X281524000Y-51046139D01*
X281362718Y-51070184D01*
X281126466Y-51125119D01*
X281075096Y-51139001D01*
X280766605Y-51305301D01*
X280549579Y-51587574D01*
X280434549Y-51953058D01*
X280432048Y-52368985D01*
X280545653Y-52786192D01*
X280646597Y-52970847D01*
X280749841Y-53026786D01*
X280864722Y-52945841D01*
X281000577Y-52719844D01*
X281166745Y-52340629D01*
X281225563Y-52191482D01*
X281378682Y-51817234D01*
X281534309Y-51471714D01*
X281668476Y-51206777D01*
X281721397Y-51118679D01*
X281980345Y-50863318D01*
X282294455Y-50744337D01*
X282624986Y-50757204D01*
G37*
G36*
X283556000Y-34546812D02*
G01*
X283556000Y-34878068D01*
X283528027Y-35119843D01*
X283458923Y-35295817D01*
X283440628Y-35317097D01*
X283370875Y-35479087D01*
X283398295Y-35574435D01*
X283500247Y-35781474D01*
X283552370Y-35886372D01*
X283587161Y-36058090D01*
X283597503Y-36348142D01*
X283586538Y-36707793D01*
X283557409Y-37088308D01*
X283513258Y-37440950D01*
X283457228Y-37716985D01*
X283428723Y-37803850D01*
X283367620Y-38012915D01*
X283401206Y-38162765D01*
X283439859Y-38222199D01*
X283518346Y-38412853D01*
X283555534Y-38667130D01*
X283556000Y-38695989D01*
X283477250Y-39005290D01*
X283262523Y-39263848D01*
X282944100Y-39439965D01*
X282749174Y-39488298D01*
X282451606Y-39535599D01*
X282142941Y-39586065D01*
X282137833Y-39586916D01*
X281820333Y-39639831D01*
X282370666Y-39896901D01*
X282651781Y-40021157D01*
X282874729Y-40106725D01*
X282994292Y-40136378D01*
X282997908Y-40135850D01*
X283107724Y-40184036D01*
X283192631Y-40338108D01*
X283216037Y-40480453D01*
X283159374Y-40665601D01*
X282974608Y-40809271D01*
X282645297Y-40921751D01*
X282440351Y-40965927D01*
X282041461Y-41043846D01*
X281800431Y-41103698D01*
X281708690Y-41158640D01*
X281757670Y-41221827D01*
X281938798Y-41306413D01*
X282161555Y-41393874D01*
X282636535Y-41586849D01*
X283054345Y-41774630D01*
X283390553Y-41944702D01*
X283620726Y-42084549D01*
X283720432Y-42181656D01*
X283722640Y-42193572D01*
X283660709Y-42358075D01*
X283526415Y-42512026D01*
X283384263Y-42581963D01*
X283381566Y-42582000D01*
X283312848Y-42606392D01*
X283369733Y-42683600D01*
X283449634Y-42841430D01*
X283467409Y-43038802D01*
X283419024Y-43190395D01*
X283394725Y-43212020D01*
X283355820Y-43318431D01*
X283354966Y-43523368D01*
X283361720Y-43584446D01*
X283371759Y-43804338D01*
X283313214Y-43982038D01*
X283159621Y-44188853D01*
X283120836Y-44233538D01*
X282985045Y-44404864D01*
X282936432Y-44503153D01*
X282963342Y-44512549D01*
X283180653Y-44506332D01*
X283348255Y-44659795D01*
X283466401Y-44973576D01*
X283535342Y-45448314D01*
X283555528Y-46014227D01*
X283547401Y-46424604D01*
X283516417Y-46720146D01*
X283453572Y-46954786D01*
X283365500Y-47152270D01*
X283149220Y-47500122D01*
X282901323Y-47720383D01*
X282580020Y-47836889D01*
X282143520Y-47873478D01*
X282100776Y-47873667D01*
X281785250Y-47869381D01*
X281584393Y-47843182D01*
X281443550Y-47775056D01*
X281308066Y-47644987D01*
X281228525Y-47554255D01*
X281053223Y-47365960D01*
X280927026Y-47288246D01*
X280796748Y-47296748D01*
X280722275Y-47322342D01*
X280424034Y-47397540D01*
X280108394Y-47419143D01*
X279839889Y-47386872D01*
X279707708Y-47326688D01*
X279587498Y-47165666D01*
X279634496Y-47024404D01*
X279847300Y-46906992D01*
X279851833Y-46905404D01*
X280101930Y-46794947D01*
X280381764Y-46639440D01*
X280449526Y-46596260D01*
X280652356Y-46443121D01*
X280739365Y-46305090D01*
X280746848Y-46122918D01*
X281524000Y-46122918D01*
X281551737Y-46350753D01*
X281621427Y-46639654D01*
X281655309Y-46747208D01*
X281780352Y-47026116D01*
X281937323Y-47265825D01*
X281993089Y-47326549D01*
X282141380Y-47451729D01*
X282240512Y-47465017D01*
X282359876Y-47375432D01*
X282361041Y-47374378D01*
X282498540Y-47169668D01*
X282613357Y-46852993D01*
X282688720Y-46481617D01*
X282709333Y-46185175D01*
X282709333Y-45884000D01*
X281524000Y-45884000D01*
X281524000Y-46122918D01*
X280746848Y-46122918D01*
X280746849Y-46122888D01*
X280745860Y-46112306D01*
X280698851Y-45914487D01*
X280582128Y-45830999D01*
X280508000Y-45817964D01*
X280265217Y-45783422D01*
X280121784Y-45756854D01*
X279948380Y-45683630D01*
X279760665Y-45554636D01*
X279602537Y-45408420D01*
X279517896Y-45283527D01*
X279523543Y-45231569D01*
X279634146Y-45197211D01*
X279869151Y-45164817D01*
X280183669Y-45140091D01*
X280281900Y-45135230D01*
X280681357Y-45106401D01*
X280947320Y-45056079D01*
X281115040Y-44976849D01*
X281143000Y-44954139D01*
X281338438Y-44817418D01*
X281481666Y-44752664D01*
X281524000Y-44749342D01*
X281645561Y-44739804D01*
X281778424Y-44780745D01*
X281829804Y-44850362D01*
X281787039Y-44904747D01*
X281691374Y-45003206D01*
X281754991Y-45075005D01*
X281969234Y-45115163D01*
X282164705Y-45122000D01*
X282431315Y-45116853D01*
X282564311Y-45091517D01*
X282599329Y-45031152D01*
X282581044Y-44948604D01*
X282572015Y-44763836D01*
X282610615Y-44673437D01*
X282622303Y-44614587D01*
X282511074Y-44592625D01*
X282271530Y-44601505D01*
X281797654Y-44578186D01*
X281385378Y-44451764D01*
X281051656Y-44242976D01*
X280813439Y-43972556D01*
X280687679Y-43661241D01*
X280689352Y-43509310D01*
X281524000Y-43509310D01*
X281593177Y-43646660D01*
X281811243Y-43776123D01*
X281901348Y-43812772D01*
X282307908Y-43907322D01*
X282673525Y-43877461D01*
X282960200Y-43727668D01*
X283005728Y-43682599D01*
X283103381Y-43537549D01*
X283073632Y-43419441D01*
X283049822Y-43388529D01*
X282848319Y-43241457D01*
X282571131Y-43158302D01*
X282260707Y-43135704D01*
X281959495Y-43170302D01*
X281709944Y-43258736D01*
X281554501Y-43397646D01*
X281524000Y-43509310D01*
X280689352Y-43509310D01*
X280691330Y-43329766D01*
X280841342Y-42998867D01*
X280899650Y-42923450D01*
X281238960Y-42622370D01*
X281648958Y-42412249D01*
X282065464Y-42325315D01*
X282092127Y-42324686D01*
X282260707Y-42322945D01*
X282413000Y-42321372D01*
X282134740Y-42200473D01*
X281815459Y-42091523D01*
X281391828Y-41986433D01*
X280928600Y-41897819D01*
X280490532Y-41838299D01*
X280181961Y-41820000D01*
X279892576Y-41798220D01*
X279733576Y-41712031D01*
X279669286Y-41530158D01*
X279661333Y-41363591D01*
X279683761Y-41190809D01*
X279766720Y-41052343D01*
X279933725Y-40934124D01*
X280208293Y-40822080D01*
X280613937Y-40702140D01*
X280883660Y-40632188D01*
X281272977Y-40532240D01*
X281597835Y-40445552D01*
X281825587Y-40381071D01*
X281923585Y-40347743D01*
X281924635Y-40346920D01*
X281869224Y-40310040D01*
X281686185Y-40248075D01*
X281413608Y-40170732D01*
X281089586Y-40087722D01*
X280752209Y-40008753D01*
X280439570Y-39943534D01*
X280189758Y-39901775D01*
X280167163Y-39898961D01*
X279739459Y-39848306D01*
X279777357Y-39116162D01*
X280206179Y-39032403D01*
X280522812Y-38970980D01*
X280912274Y-38896007D01*
X281227666Y-38835663D01*
X281820333Y-38722681D01*
X281553147Y-38564467D01*
X281248767Y-38290902D01*
X281021396Y-37890973D01*
X280887482Y-37396450D01*
X280868709Y-37242460D01*
X280830825Y-36824667D01*
X281608666Y-36824667D01*
X281610526Y-37099834D01*
X281648102Y-37356900D01*
X281738911Y-37648788D01*
X281766441Y-37713667D01*
X281956341Y-38042311D01*
X282144320Y-38206508D01*
X282320634Y-38210961D01*
X282475541Y-38060375D01*
X282599300Y-37759454D01*
X282682167Y-37312904D01*
X282686931Y-37269167D01*
X282733023Y-36824667D01*
X281608666Y-36824667D01*
X280830825Y-36824667D01*
X280823148Y-36740000D01*
X280480313Y-36740000D01*
X280118184Y-36671661D01*
X279773286Y-36492176D01*
X279517202Y-36239848D01*
X279501989Y-36216533D01*
X279468017Y-36144415D01*
X279494047Y-36099208D01*
X279607778Y-36074674D01*
X279836911Y-36064574D01*
X280185150Y-36062667D01*
X280559552Y-36059037D01*
X280807473Y-36041957D01*
X280971712Y-36002146D01*
X281095070Y-35930322D01*
X281192420Y-35844211D01*
X281513738Y-35647572D01*
X281789719Y-35581238D01*
X282012580Y-35557435D01*
X282089431Y-35567001D01*
X282042220Y-35621753D01*
X281968500Y-35677495D01*
X281811752Y-35821936D01*
X281808270Y-35916303D01*
X281962528Y-35966242D01*
X282206655Y-35978000D01*
X282461662Y-35969097D01*
X282585068Y-35933297D01*
X282614086Y-35856960D01*
X282610935Y-35829834D01*
X282624710Y-35642767D01*
X282652943Y-35575834D01*
X282614085Y-35520805D01*
X282433331Y-35486148D01*
X282136928Y-35472181D01*
X281751121Y-35479222D01*
X281302157Y-35507590D01*
X280846666Y-35553906D01*
X280467538Y-35588764D01*
X280190232Y-35582247D01*
X279951490Y-35530695D01*
X279851833Y-35496352D01*
X279635993Y-35394109D01*
X279507569Y-35291071D01*
X279492000Y-35253734D01*
X279570039Y-35168348D01*
X279783537Y-35062214D01*
X280101562Y-34946020D01*
X280493183Y-34830457D01*
X280927470Y-34726214D01*
X281143000Y-34683151D01*
X281735666Y-34572979D01*
X281016000Y-34332597D01*
X280547884Y-34171960D01*
X280219526Y-34045385D01*
X280008222Y-33939191D01*
X279891265Y-33839698D01*
X279845950Y-33733226D01*
X279846677Y-33628069D01*
X279878047Y-33514187D01*
X279961993Y-33416701D01*
X280128829Y-33314858D01*
X280408872Y-33187904D01*
X280612572Y-33103743D01*
X280932423Y-32968531D01*
X281182934Y-32852839D01*
X281329555Y-32773146D01*
X281353405Y-32750440D01*
X281276859Y-32716674D01*
X281074562Y-32677871D01*
X280789580Y-32642210D01*
X280776846Y-32640943D01*
X280422189Y-32591654D01*
X280169959Y-32512363D01*
X279953369Y-32379367D01*
X279883489Y-32323915D01*
X279709573Y-32165021D01*
X279617332Y-32049384D01*
X279613909Y-32017869D01*
X279607645Y-31924481D01*
X279563764Y-31856121D01*
X279534551Y-31793194D01*
X279604764Y-31769505D01*
X279801979Y-31780614D01*
X279938945Y-31795717D01*
X280410226Y-31851107D01*
X280332428Y-31504855D01*
X280257324Y-31233936D01*
X280134218Y-30856724D01*
X279980815Y-30422992D01*
X279814817Y-29982512D01*
X279804623Y-29957330D01*
X280692184Y-29957330D01*
X280844161Y-30448832D01*
X280942044Y-30809919D01*
X281024414Y-31190019D01*
X281055075Y-31375585D01*
X281099104Y-31634487D01*
X281161302Y-31772765D01*
X281273035Y-31838615D01*
X281371923Y-31862418D01*
X281593434Y-31889675D01*
X281903337Y-31906355D01*
X282260213Y-31912927D01*
X282622641Y-31909862D01*
X282949199Y-31897629D01*
X283198466Y-31876697D01*
X283329023Y-31847537D01*
X283337658Y-31840134D01*
X283313430Y-31738992D01*
X283197624Y-31575298D01*
X283143115Y-31514928D01*
X282973837Y-31279121D01*
X282854379Y-30958742D01*
X282796540Y-30699793D01*
X282735941Y-30417181D01*
X282678612Y-30214497D01*
X282636793Y-30134884D01*
X282636246Y-30134844D01*
X282519660Y-30114150D01*
X282395322Y-30083548D01*
X282305886Y-30065845D01*
X282253623Y-30092311D01*
X282232399Y-30193774D01*
X282236079Y-30401066D01*
X282258531Y-30745018D01*
X282259888Y-30764267D01*
X282282222Y-31114701D01*
X282285506Y-31326320D01*
X282265162Y-31429020D01*
X282216611Y-31452701D01*
X282157034Y-31435863D01*
X281895249Y-31253896D01*
X281652931Y-30929921D01*
X281448339Y-30491258D01*
X281373235Y-30263000D01*
X281292455Y-30084949D01*
X281148736Y-30004882D01*
X280995714Y-29983165D01*
X280692184Y-29957330D01*
X279804623Y-29957330D01*
X279653930Y-29585058D01*
X279628252Y-29525098D01*
X279547380Y-29320849D01*
X279542209Y-29213019D01*
X279616644Y-29144666D01*
X279655856Y-29122932D01*
X279870390Y-29054764D01*
X280112617Y-29039420D01*
X280312109Y-29076115D01*
X280387856Y-29131093D01*
X280474028Y-29167783D01*
X280686283Y-29190644D01*
X280692184Y-29190803D01*
X281036335Y-29200098D01*
X281535898Y-29196568D01*
X281949052Y-29187440D01*
X283451066Y-29148027D01*
X283502797Y-29578514D01*
X283520544Y-29811504D01*
X283535762Y-30173589D01*
X283547304Y-30624534D01*
X283554025Y-31124106D01*
X283555264Y-31421119D01*
X283552637Y-31968815D01*
X283542859Y-32370549D01*
X283524065Y-32649610D01*
X283494390Y-32829286D01*
X283451969Y-32932866D01*
X283432298Y-32956940D01*
X283302610Y-33029112D01*
X283048428Y-33127742D01*
X282709601Y-33238476D01*
X282416594Y-33322821D01*
X282056374Y-33424597D01*
X281765787Y-33514264D01*
X281578099Y-33581062D01*
X281524296Y-33611492D01*
X281595210Y-33667339D01*
X281770999Y-33746651D01*
X281820222Y-33765098D01*
X282031260Y-33849718D01*
X282340731Y-33983802D01*
X282694376Y-34143617D01*
X282733023Y-34161571D01*
X282836222Y-34209513D01*
X283556000Y-34546812D01*
G37*
G36*
X280150924Y-42383730D02*
G01*
X280372119Y-42523944D01*
X280398693Y-42555733D01*
X280496938Y-42783275D01*
X280555593Y-43120904D01*
X280574718Y-43514080D01*
X280554369Y-43908264D01*
X280494607Y-44248914D01*
X280396627Y-44479947D01*
X280240881Y-44589326D01*
X280053266Y-44637582D01*
X279920082Y-44640322D01*
X279845217Y-44596977D01*
X279808209Y-44469558D01*
X279788595Y-44220074D01*
X279784216Y-44138069D01*
X279745120Y-43749123D01*
X279675753Y-43333986D01*
X279630860Y-43136862D01*
X279563984Y-42862355D01*
X279547014Y-42697259D01*
X279583567Y-42588101D01*
X279675044Y-42483623D01*
X279896624Y-42368103D01*
X280150924Y-42383730D01*
G37*
G36*
X283457997Y-47959108D02*
G01*
X283482812Y-48062399D01*
X283489685Y-48259637D01*
X283489331Y-48273981D01*
X283440353Y-48529500D01*
X283296769Y-48702020D01*
X283037944Y-48803209D01*
X282643239Y-48844733D01*
X282475165Y-48847334D01*
X282153024Y-48849125D01*
X281973220Y-48860731D01*
X281908755Y-48891497D01*
X281932632Y-48950767D01*
X281988791Y-49015699D01*
X282217305Y-49214564D01*
X282540674Y-49432255D01*
X282894627Y-49629693D01*
X283214894Y-49767801D01*
X283238500Y-49775550D01*
X283478774Y-49905995D01*
X283559811Y-50093997D01*
X283481618Y-50339591D01*
X283380521Y-50486915D01*
X283167218Y-50659185D01*
X282905703Y-50686776D01*
X282587926Y-50567677D01*
X282205836Y-50299877D01*
X282032469Y-50150018D01*
X281704387Y-49853616D01*
X281381360Y-50066849D01*
X280932277Y-50313644D01*
X280483633Y-50471670D01*
X280072614Y-50532604D01*
X279736408Y-50488125D01*
X279655767Y-50453021D01*
X279522613Y-50347136D01*
X279520759Y-50231158D01*
X279659044Y-50093145D01*
X279946310Y-49921156D01*
X280112100Y-49836615D01*
X280437355Y-49667763D01*
X280730173Y-49501626D01*
X280934811Y-49370086D01*
X280956674Y-49353573D01*
X281102553Y-49217235D01*
X281124314Y-49106116D01*
X281078208Y-49012168D01*
X280955034Y-48899864D01*
X280740189Y-48852176D01*
X280591139Y-48847334D01*
X280268199Y-48809583D01*
X280012919Y-48711161D01*
X279997672Y-48701019D01*
X279680685Y-48461247D01*
X279515901Y-48286892D01*
X279502598Y-48170658D01*
X279640054Y-48105248D01*
X279927545Y-48083364D01*
X279936500Y-48083313D01*
X280168674Y-48078105D01*
X280531739Y-48064954D01*
X280987519Y-48045468D01*
X281497841Y-48021254D01*
X281899911Y-48000613D01*
X282388890Y-47976827D01*
X282816855Y-47960169D01*
X283156190Y-47951373D01*
X283379276Y-47951176D01*
X283457997Y-47959108D01*
G37*
G36*
X114277795Y-84609408D02*
G01*
X114334228Y-84303602D01*
X114427703Y-84081058D01*
X114566569Y-83913227D01*
X114759172Y-83771560D01*
X114775943Y-83761239D01*
X115152922Y-83619799D01*
X115553701Y-83614688D01*
X115933360Y-83734304D01*
X116246976Y-83967046D01*
X116397556Y-84180051D01*
X116455205Y-84338183D01*
X116494361Y-84569255D01*
X116517608Y-84901369D01*
X116527533Y-85362623D01*
X116528350Y-85601962D01*
X116525249Y-86086727D01*
X116513723Y-86435229D01*
X116489973Y-86680474D01*
X116450202Y-86855467D01*
X116390614Y-86993216D01*
X116362761Y-87041389D01*
X116088499Y-87340674D01*
X115728279Y-87521177D01*
X115326060Y-87572721D01*
X114925804Y-87485129D01*
X114775943Y-87408761D01*
X114578992Y-87267903D01*
X114436401Y-87103012D01*
X114339825Y-86885540D01*
X114280915Y-86586938D01*
X114251322Y-86178658D01*
X114242700Y-85632150D01*
X114242666Y-85585000D01*
X114835333Y-85585000D01*
X114837952Y-86033641D01*
X114848781Y-86345286D01*
X114872272Y-86552230D01*
X114912881Y-86686766D01*
X114975062Y-86781192D01*
X115004666Y-86812667D01*
X115206369Y-86940761D01*
X115385666Y-86982000D01*
X115604671Y-86923113D01*
X115766666Y-86812667D01*
X115838030Y-86724931D01*
X115886160Y-86609124D01*
X115915513Y-86432950D01*
X115930541Y-86164115D01*
X115935700Y-85770323D01*
X115936000Y-85585000D01*
X115933380Y-85136358D01*
X115922552Y-84824713D01*
X115899060Y-84617770D01*
X115858451Y-84483233D01*
X115796270Y-84388808D01*
X115766666Y-84357333D01*
X115564963Y-84229239D01*
X115385666Y-84188000D01*
X115166662Y-84246887D01*
X115004666Y-84357333D01*
X114933303Y-84445069D01*
X114885172Y-84560876D01*
X114855820Y-84737050D01*
X114840791Y-85005885D01*
X114835632Y-85399677D01*
X114835333Y-85585000D01*
X114242666Y-85585000D01*
X114250057Y-85027024D01*
X114277795Y-84609408D01*
G37*
G36*
X100432341Y-84755122D02*
G01*
X100487279Y-84815023D01*
X100527258Y-84931901D01*
X100555350Y-85131388D01*
X100574631Y-85439120D01*
X100588173Y-85880730D01*
X100592485Y-86090627D01*
X100596829Y-86673067D01*
X100584626Y-87092647D01*
X100555568Y-87355063D01*
X100518618Y-87457364D01*
X100357239Y-87556502D01*
X100167955Y-87565958D01*
X100075111Y-87518222D01*
X100055892Y-87418353D01*
X100039483Y-87179231D01*
X100027095Y-86830928D01*
X100019941Y-86403519D01*
X100018666Y-86118565D01*
X100020656Y-85606026D01*
X100028256Y-85238134D01*
X100043912Y-84990230D01*
X100070070Y-84837657D01*
X100109175Y-84755756D01*
X100157174Y-84722201D01*
X100342441Y-84718533D01*
X100432341Y-84755122D01*
G37*
G36*
X100465036Y-83685868D02*
G01*
X100554862Y-83778736D01*
X100593986Y-83956365D01*
X100509183Y-84097606D01*
X100345850Y-84167729D01*
X100149386Y-84132005D01*
X100117092Y-84113628D01*
X100039726Y-83982554D01*
X100032425Y-83839758D01*
X100121064Y-83686532D01*
X100286949Y-83632703D01*
X100465036Y-83685868D01*
G37*
G36*
X106556891Y-85533556D02*
G01*
X106651369Y-85346035D01*
X106672784Y-85316042D01*
X107026501Y-84962287D01*
X107437148Y-84752372D01*
X107875029Y-84686497D01*
X108310450Y-84764863D01*
X108713715Y-84987672D01*
X109016025Y-85300161D01*
X109132016Y-85525245D01*
X109208499Y-85803424D01*
X109238576Y-86079697D01*
X109215355Y-86299062D01*
X109153497Y-86396791D01*
X109024855Y-86426959D01*
X108766492Y-86451526D01*
X108417997Y-86467682D01*
X108083166Y-86472703D01*
X107700978Y-86479748D01*
X107393026Y-86497927D01*
X107192332Y-86524472D01*
X107130666Y-86552521D01*
X107202370Y-86681112D01*
X107378531Y-86819713D01*
X107600728Y-86932037D01*
X107810535Y-86981795D01*
X107822137Y-86982000D01*
X108075901Y-86948028D01*
X108344538Y-86866215D01*
X108347261Y-86865083D01*
X108626447Y-86803423D01*
X108819361Y-86858674D01*
X108907083Y-86995059D01*
X108870689Y-87176803D01*
X108691258Y-87368131D01*
X108633500Y-87406261D01*
X108278026Y-87541367D01*
X107860048Y-87580158D01*
X107448839Y-87523652D01*
X107129805Y-87384167D01*
X106806541Y-87123524D01*
X106610529Y-86845962D01*
X106515856Y-86500453D01*
X106495666Y-86135333D01*
X106507758Y-85810971D01*
X107159767Y-85810971D01*
X107225337Y-85850846D01*
X107388965Y-85872280D01*
X107678967Y-85880520D01*
X107886587Y-85881333D01*
X108249301Y-85879360D01*
X108471017Y-85868896D01*
X108580059Y-85843128D01*
X108604755Y-85795238D01*
X108573429Y-85718412D01*
X108572323Y-85716342D01*
X108375479Y-85483585D01*
X108107384Y-85327045D01*
X107911956Y-85288667D01*
X107743840Y-85318556D01*
X107531983Y-85390946D01*
X107338301Y-85479921D01*
X107224710Y-85559564D01*
X107215333Y-85580249D01*
X107189071Y-85677648D01*
X107163941Y-85747408D01*
X107159767Y-85810971D01*
X106507758Y-85810971D01*
X106508979Y-85778208D01*
X106556891Y-85533556D01*
G37*
G36*
X111031880Y-84743004D02*
G01*
X111130166Y-84809262D01*
X111152333Y-84940772D01*
X111142557Y-85057347D01*
X111091010Y-85144759D01*
X110964358Y-85229987D01*
X110729270Y-85340015D01*
X110578909Y-85404941D01*
X110369739Y-85521427D01*
X110229013Y-85680385D01*
X110144394Y-85914110D01*
X110103542Y-86254900D01*
X110094000Y-86674245D01*
X110081139Y-87064062D01*
X110044972Y-87340843D01*
X109992400Y-87473067D01*
X109820837Y-87563487D01*
X109641567Y-87552428D01*
X109533208Y-87450943D01*
X109516070Y-87318195D01*
X109507480Y-87058082D01*
X109508206Y-86712395D01*
X109514699Y-86440872D01*
X109533882Y-86017394D01*
X109563420Y-85724128D01*
X109610471Y-85521983D01*
X109682197Y-85371867D01*
X109720784Y-85315762D01*
X110053325Y-84971604D01*
X110426883Y-84765725D01*
X110810909Y-84713198D01*
X111031880Y-84743004D01*
G37*
G36*
X104411674Y-83315756D02*
G01*
X104470848Y-83381620D01*
X104512826Y-83510625D01*
X104541420Y-83730289D01*
X104560445Y-84068136D01*
X104572036Y-84473099D01*
X104595738Y-85544404D01*
X105232308Y-85114851D01*
X105638531Y-84864343D01*
X105937523Y-84736138D01*
X106137572Y-84728729D01*
X106246968Y-84840611D01*
X106268433Y-84926631D01*
X106245617Y-85070005D01*
X106117587Y-85223665D01*
X105898693Y-85392297D01*
X105655199Y-85562988D01*
X105453222Y-85705199D01*
X105369943Y-85764275D01*
X105322282Y-85824687D01*
X105336646Y-85917432D01*
X105427117Y-86068550D01*
X105607780Y-86304081D01*
X105767491Y-86499367D01*
X106068893Y-86895000D01*
X106236666Y-87194023D01*
X106272305Y-87401887D01*
X106177301Y-87524041D01*
X106057763Y-87558524D01*
X105942541Y-87538346D01*
X105794087Y-87435327D01*
X105591209Y-87230886D01*
X105312714Y-86906443D01*
X105309332Y-86902357D01*
X105068920Y-86620156D01*
X104863736Y-86394813D01*
X104719646Y-86253836D01*
X104667735Y-86220000D01*
X104629261Y-86297389D01*
X104601636Y-86500597D01*
X104590677Y-86786183D01*
X104590666Y-86795733D01*
X104575814Y-87124592D01*
X104535865Y-87368540D01*
X104489066Y-87473067D01*
X104318278Y-87561717D01*
X104130405Y-87560823D01*
X104054444Y-87518222D01*
X104038779Y-87421237D01*
X104024784Y-87178730D01*
X104013094Y-86814510D01*
X104004341Y-86352386D01*
X103999161Y-85816167D01*
X103998000Y-85398898D01*
X103999040Y-84749218D01*
X104003027Y-84249021D01*
X104011260Y-83878463D01*
X104025037Y-83617700D01*
X104045658Y-83446891D01*
X104074420Y-83346192D01*
X104112624Y-83295759D01*
X104136508Y-83282868D01*
X104321789Y-83279188D01*
X104411674Y-83315756D01*
G37*
G36*
X97717157Y-83727890D02*
G01*
X98180151Y-83968696D01*
X98499673Y-84261992D01*
X98684739Y-84553364D01*
X98713407Y-84789028D01*
X98585354Y-84965390D01*
X98564007Y-84979569D01*
X98462190Y-85006686D01*
X98331179Y-84952845D01*
X98137700Y-84800088D01*
X98002175Y-84676366D01*
X97568670Y-84356435D01*
X97133580Y-84203094D01*
X96702426Y-84216932D01*
X96280729Y-84398539D01*
X96164152Y-84480257D01*
X95849151Y-84816581D01*
X95667732Y-85219123D01*
X95620058Y-85651732D01*
X95706292Y-86078257D01*
X95926599Y-86462547D01*
X96154180Y-86682137D01*
X96571233Y-86902853D01*
X97015919Y-86967864D01*
X97456753Y-86880146D01*
X97862248Y-86642671D01*
X98006838Y-86507119D01*
X98262877Y-86297793D01*
X98482835Y-86247219D01*
X98659570Y-86356481D01*
X98692417Y-86402832D01*
X98706828Y-86573031D01*
X98594205Y-86789121D01*
X98379271Y-87021873D01*
X98086749Y-87242055D01*
X97887743Y-87354247D01*
X97423210Y-87516226D01*
X96925091Y-87574320D01*
X96456480Y-87524674D01*
X96244419Y-87454573D01*
X95881687Y-87236551D01*
X95534149Y-86926094D01*
X95261970Y-86581044D01*
X95181235Y-86432393D01*
X95072711Y-86062020D01*
X95029127Y-85619575D01*
X95052464Y-85181356D01*
X95139741Y-84835290D01*
X95357658Y-84461951D01*
X95670429Y-84107209D01*
X96021130Y-83831107D01*
X96165607Y-83753235D01*
X96666728Y-83610753D01*
X97198297Y-83605440D01*
X97717157Y-83727890D01*
G37*
G36*
X111198273Y-85744845D02*
G01*
X111291653Y-85548070D01*
X111448796Y-85266581D01*
X111649303Y-84932027D01*
X111872775Y-84576058D01*
X112098813Y-84230325D01*
X112307017Y-83926476D01*
X112476988Y-83696162D01*
X112588328Y-83571033D01*
X112607290Y-83558720D01*
X112784883Y-83567051D01*
X112929558Y-83687117D01*
X112972666Y-83823457D01*
X112932016Y-83964575D01*
X112828670Y-84185115D01*
X112758726Y-84311241D01*
X112544786Y-84676302D01*
X112864560Y-84736005D01*
X113181982Y-84863354D01*
X113511833Y-85137153D01*
X113531167Y-85157108D01*
X113836139Y-85562336D01*
X113974290Y-85976373D01*
X113948048Y-86413349D01*
X113811201Y-86787132D01*
X113543155Y-87161599D01*
X113177977Y-87420572D01*
X112751672Y-87553193D01*
X112300243Y-87548606D01*
X111859694Y-87395952D01*
X111836018Y-87382774D01*
X111493222Y-87101739D01*
X111254216Y-86730264D01*
X111135824Y-86311555D01*
X111141773Y-86179500D01*
X111737550Y-86179500D01*
X111828260Y-86501412D01*
X112049823Y-86798587D01*
X112349985Y-86954137D01*
X112701238Y-86958400D01*
X112922269Y-86885602D01*
X113138668Y-86706768D01*
X113297849Y-86429870D01*
X113366847Y-86124428D01*
X113355130Y-85972664D01*
X113212415Y-85664718D01*
X112966724Y-85449553D01*
X112661364Y-85341269D01*
X112339640Y-85353967D01*
X112044856Y-85501750D01*
X112008164Y-85534057D01*
X111790941Y-85837775D01*
X111737550Y-86179500D01*
X111141773Y-86179500D01*
X111154869Y-85888817D01*
X111198273Y-85744845D01*
G37*
G36*
X99501008Y-83315858D02*
G01*
X99545409Y-83362690D01*
X99579916Y-83453930D01*
X99606112Y-83610013D01*
X99625581Y-83851374D01*
X99639909Y-84198447D01*
X99650679Y-84671667D01*
X99659476Y-85291468D01*
X99660419Y-85371912D01*
X99665357Y-86087752D01*
X99661495Y-86643832D01*
X99648503Y-87049511D01*
X99626049Y-87314151D01*
X99593801Y-87447113D01*
X99586552Y-87458246D01*
X99425544Y-87556723D01*
X99236371Y-87565851D01*
X99143777Y-87518222D01*
X99128113Y-87421237D01*
X99114118Y-87178730D01*
X99102427Y-86814510D01*
X99093675Y-86352386D01*
X99088495Y-85816167D01*
X99087333Y-85398898D01*
X99088373Y-84749218D01*
X99092360Y-84249021D01*
X99100593Y-83878463D01*
X99114370Y-83617700D01*
X99134991Y-83446891D01*
X99163754Y-83346192D01*
X99201957Y-83295759D01*
X99225841Y-83282868D01*
X99411076Y-83279226D01*
X99501008Y-83315858D01*
G37*
G36*
X102669659Y-84724898D02*
G01*
X103021299Y-84848342D01*
X103354575Y-85107168D01*
X103434320Y-85188070D01*
X103609710Y-85440045D01*
X103624703Y-85653986D01*
X103478857Y-85823159D01*
X103475925Y-85825018D01*
X103364684Y-85854307D01*
X103223344Y-85792945D01*
X103013229Y-85623165D01*
X102988848Y-85601260D01*
X102676792Y-85373293D01*
X102389909Y-85294571D01*
X102089117Y-85357673D01*
X101978278Y-85409317D01*
X101714682Y-85623684D01*
X101578677Y-85900912D01*
X101560140Y-86205329D01*
X101648951Y-86501260D01*
X101834988Y-86753035D01*
X102108128Y-86924978D01*
X102424516Y-86982000D01*
X102618176Y-86927418D01*
X102848914Y-86790551D01*
X102926731Y-86728000D01*
X103194956Y-86533021D01*
X103394917Y-86484872D01*
X103538963Y-86581473D01*
X103563647Y-86620635D01*
X103585221Y-86819066D01*
X103472802Y-87048368D01*
X103248615Y-87274072D01*
X103062764Y-87397353D01*
X102657913Y-87538928D01*
X102202976Y-87562474D01*
X101772260Y-87464853D01*
X101744098Y-87453036D01*
X101527399Y-87312424D01*
X101302329Y-87098495D01*
X101236098Y-87018441D01*
X101100600Y-86818079D01*
X101026756Y-86625282D01*
X100996766Y-86374947D01*
X100992333Y-86126966D01*
X101006397Y-85769718D01*
X101056532Y-85525074D01*
X101154655Y-85338033D01*
X101166898Y-85321273D01*
X101486549Y-84983783D01*
X101853343Y-84788989D01*
X102244973Y-84715088D01*
X102669659Y-84724898D01*
G37*
%TD*%
D10*
%TO.C,MX1*%
X9000000Y-9000000D03*
D11*
X6460000Y-14080000D03*
D12*
X14080000Y-9000000D03*
D11*
X12810000Y-11540000D03*
D12*
X3920000Y-9000000D03*
%TD*%
%TO.C,MX2*%
X22970000Y-9000000D03*
D10*
X28050000Y-9000000D03*
D11*
X31860000Y-11540000D03*
D12*
X33130000Y-9000000D03*
D11*
X25510000Y-14080000D03*
%TD*%
D12*
%TO.C,MX3*%
X52180000Y-9000000D03*
D10*
X47100000Y-9000000D03*
D12*
X42020000Y-9000000D03*
D11*
X43290000Y-6460000D03*
X49640000Y-3920000D03*
%TD*%
%TO.C,MX4*%
X62340000Y-6460000D03*
D12*
X61070000Y-9000000D03*
D11*
X68690000Y-3920000D03*
D10*
X66150000Y-9000000D03*
D12*
X71230000Y-9000000D03*
%TD*%
%TO.C,MX5*%
X90280000Y-9000000D03*
D11*
X87740000Y-3920000D03*
D12*
X80120000Y-9000000D03*
D10*
X85200000Y-9000000D03*
D11*
X81390000Y-6460000D03*
%TD*%
%TO.C,MX6*%
X106790000Y-3920000D03*
D10*
X104250000Y-9000000D03*
D12*
X109330000Y-9000000D03*
D11*
X100440000Y-6460000D03*
D12*
X99170000Y-9000000D03*
%TD*%
D11*
%TO.C,MX7*%
X119490000Y-6460000D03*
D12*
X118220000Y-9000000D03*
D11*
X125840000Y-3920000D03*
D12*
X128380000Y-9000000D03*
D10*
X123300000Y-9000000D03*
%TD*%
D11*
%TO.C,MX9*%
X163940000Y-3920000D03*
D12*
X156320000Y-9000000D03*
D11*
X157590000Y-6460000D03*
D12*
X166480000Y-9000000D03*
D10*
X161400000Y-9000000D03*
%TD*%
D11*
%TO.C,MX10*%
X182990000Y-3920000D03*
X176640000Y-6460000D03*
D12*
X185530000Y-9000000D03*
X175370000Y-9000000D03*
D10*
X180450000Y-9000000D03*
%TD*%
%TO.C,MX11*%
X199500000Y-9000000D03*
D12*
X194420000Y-9000000D03*
D11*
X202040000Y-3920000D03*
D12*
X204580000Y-9000000D03*
D11*
X195690000Y-6460000D03*
%TD*%
%TO.C,MX12*%
X214740000Y-6460000D03*
D10*
X218550000Y-9000000D03*
D11*
X221090000Y-3920000D03*
D12*
X223630000Y-9000000D03*
X213470000Y-9000000D03*
%TD*%
D11*
%TO.C,MX13*%
X233790000Y-6460000D03*
D10*
X237600000Y-9000000D03*
D12*
X232520000Y-9000000D03*
X242680000Y-9000000D03*
D11*
X240140000Y-3920000D03*
%TD*%
D12*
%TO.C,MX14*%
X261730000Y-9000000D03*
X251570000Y-9000000D03*
D11*
X254110000Y-14080000D03*
X260460000Y-11540000D03*
D10*
X256650000Y-9000000D03*
%TD*%
D11*
%TO.C,MX16*%
X268715000Y-3920000D03*
X262365000Y-6460000D03*
D10*
X278113000Y-17255000D03*
X254237000Y-17255000D03*
D12*
X271255000Y-9000000D03*
D13*
X278113000Y-2015000D03*
X254237000Y-2015000D03*
D10*
X266175000Y-9000000D03*
D12*
X261095000Y-9000000D03*
%TD*%
D10*
%TO.C,MX17*%
X13762500Y-28050000D03*
D12*
X18842500Y-28050000D03*
D11*
X9952500Y-25510000D03*
X16302500Y-22970000D03*
D12*
X8682500Y-28050000D03*
%TD*%
D11*
%TO.C,MX18*%
X40115000Y-22970000D03*
X33765000Y-25510000D03*
D12*
X42655000Y-28050000D03*
D10*
X37575000Y-28050000D03*
D12*
X32495000Y-28050000D03*
%TD*%
D11*
%TO.C,MX19*%
X59165000Y-22970000D03*
D10*
X56625000Y-28050000D03*
D12*
X51545000Y-28050000D03*
D11*
X52815000Y-25510000D03*
D12*
X61705000Y-28050000D03*
%TD*%
D10*
%TO.C,MX20*%
X75675000Y-28050000D03*
D11*
X71865000Y-25510000D03*
X78215000Y-22970000D03*
D12*
X70595000Y-28050000D03*
X80755000Y-28050000D03*
%TD*%
D10*
%TO.C,MX21*%
X94725000Y-28050000D03*
D12*
X89645000Y-28050000D03*
X99805000Y-28050000D03*
D11*
X97265000Y-22970000D03*
X90915000Y-25510000D03*
%TD*%
%TO.C,MX22*%
X116315000Y-22970000D03*
D12*
X108695000Y-28050000D03*
X118855000Y-28050000D03*
D10*
X113775000Y-28050000D03*
D11*
X109965000Y-25510000D03*
%TD*%
D12*
%TO.C,MX23*%
X137905000Y-28050000D03*
D11*
X135365000Y-22970000D03*
D10*
X132825000Y-28050000D03*
D12*
X127745000Y-28050000D03*
D11*
X129015000Y-25510000D03*
%TD*%
D10*
%TO.C,MX24*%
X151875000Y-28050000D03*
D11*
X154415000Y-22970000D03*
X148065000Y-25510000D03*
D12*
X146795000Y-28050000D03*
X156955000Y-28050000D03*
%TD*%
D11*
%TO.C,MX25*%
X167115000Y-25510000D03*
D12*
X176005000Y-28050000D03*
X165845000Y-28050000D03*
D11*
X173465000Y-22970000D03*
D10*
X170925000Y-28050000D03*
%TD*%
D12*
%TO.C,MX26*%
X195055000Y-28050000D03*
D11*
X192515000Y-22970000D03*
D10*
X189975000Y-28050000D03*
D11*
X186165000Y-25510000D03*
D12*
X184895000Y-28050000D03*
%TD*%
D11*
%TO.C,MX27*%
X205215000Y-25510000D03*
D12*
X214105000Y-28050000D03*
X203945000Y-28050000D03*
D10*
X209025000Y-28050000D03*
D11*
X211565000Y-22970000D03*
%TD*%
D12*
%TO.C,MX28*%
X233155000Y-28050000D03*
D11*
X230615000Y-22970000D03*
D12*
X222995000Y-28050000D03*
D11*
X224265000Y-25510000D03*
D10*
X228075000Y-28050000D03*
%TD*%
D11*
%TO.C,MX29*%
X249665000Y-22970000D03*
D10*
X247125000Y-28050000D03*
D12*
X242045000Y-28050000D03*
X252205000Y-28050000D03*
D11*
X243315000Y-25510000D03*
%TD*%
D10*
%TO.C,MX30*%
X270937500Y-28050000D03*
D12*
X265857500Y-28050000D03*
X276017500Y-28050000D03*
D11*
X273477500Y-22970000D03*
X267127500Y-25510000D03*
%TD*%
D10*
%TO.C,MX31*%
X11381250Y-47100000D03*
D12*
X6301250Y-47100000D03*
D11*
X15191250Y-49640000D03*
X8841250Y-52180000D03*
D12*
X16461250Y-47100000D03*
%TD*%
D11*
%TO.C,MX32*%
X12333750Y-44560000D03*
D12*
X21223750Y-47100000D03*
X11063750Y-47100000D03*
D11*
X18683750Y-42020000D03*
D10*
X16143750Y-47100000D03*
%TD*%
D12*
%TO.C,MX33*%
X47417500Y-47100000D03*
D11*
X38527500Y-44560000D03*
D12*
X37257500Y-47100000D03*
D11*
X44877500Y-42020000D03*
D10*
X42337500Y-47100000D03*
%TD*%
D12*
%TO.C,MX34*%
X56307500Y-47100000D03*
D10*
X61387500Y-47100000D03*
D12*
X66467500Y-47100000D03*
D11*
X63927500Y-42020000D03*
X57577500Y-44560000D03*
%TD*%
D10*
%TO.C,MX35*%
X80437500Y-47100000D03*
D12*
X75357500Y-47100000D03*
D11*
X76627500Y-44560000D03*
X82977500Y-42020000D03*
D12*
X85517500Y-47100000D03*
%TD*%
D10*
%TO.C,MX36*%
X99487500Y-47100000D03*
D12*
X94407500Y-47100000D03*
D11*
X102027500Y-42020000D03*
X95677500Y-44560000D03*
D12*
X104567500Y-47100000D03*
%TD*%
D11*
%TO.C,MX37*%
X114727500Y-44560000D03*
D12*
X123617500Y-47100000D03*
D10*
X118537500Y-47100000D03*
D12*
X113457500Y-47100000D03*
D11*
X121077500Y-42020000D03*
%TD*%
%TO.C,MX38*%
X140127500Y-42020000D03*
D10*
X137587500Y-47100000D03*
D11*
X133777500Y-44560000D03*
D12*
X132507500Y-47100000D03*
X142667500Y-47100000D03*
%TD*%
%TO.C,MX39*%
X151557500Y-47100000D03*
D11*
X152827500Y-44560000D03*
X159177500Y-42020000D03*
D12*
X161717500Y-47100000D03*
D10*
X156637500Y-47100000D03*
%TD*%
D11*
%TO.C,MX40*%
X178227500Y-42020000D03*
D10*
X175687500Y-47100000D03*
D11*
X171877500Y-44560000D03*
D12*
X170607500Y-47100000D03*
X180767500Y-47100000D03*
%TD*%
D10*
%TO.C,MX41*%
X194737500Y-47100000D03*
D11*
X197277500Y-42020000D03*
X190927500Y-44560000D03*
D12*
X189657500Y-47100000D03*
X199817500Y-47100000D03*
%TD*%
D10*
%TO.C,MX42*%
X213787500Y-47100000D03*
D11*
X209977500Y-44560000D03*
D12*
X218867500Y-47100000D03*
X208707500Y-47100000D03*
D11*
X216327500Y-42020000D03*
%TD*%
D10*
%TO.C,MX43*%
X232837500Y-47100000D03*
D11*
X235377500Y-42020000D03*
D12*
X227757500Y-47100000D03*
D11*
X229027500Y-44560000D03*
D12*
X237917500Y-47100000D03*
%TD*%
D13*
%TO.C,MX44*%
X251855750Y-40115000D03*
D10*
X275731750Y-55355000D03*
D11*
X266333750Y-42020000D03*
D12*
X268873750Y-47100000D03*
D10*
X263793750Y-47100000D03*
D12*
X258713750Y-47100000D03*
D11*
X259983750Y-44560000D03*
D10*
X251855750Y-55355000D03*
D13*
X275731750Y-40115000D03*
%TD*%
%TO.C,MX45*%
X8968250Y-59165000D03*
D11*
X17096250Y-63610000D03*
D12*
X15826250Y-66150000D03*
D10*
X20906250Y-66150000D03*
X32844250Y-74405000D03*
X8968250Y-74405000D03*
D12*
X25986250Y-66150000D03*
D11*
X23446250Y-61070000D03*
D13*
X32844250Y-59165000D03*
%TD*%
D11*
%TO.C,MX46*%
X54402500Y-61070000D03*
D12*
X56942500Y-66150000D03*
X46782500Y-66150000D03*
D11*
X48052500Y-63610000D03*
D10*
X51862500Y-66150000D03*
%TD*%
D12*
%TO.C,MX47*%
X65832500Y-66150000D03*
D11*
X67102500Y-63610000D03*
D12*
X75992500Y-66150000D03*
D10*
X70912500Y-66150000D03*
D11*
X73452500Y-61070000D03*
%TD*%
%TO.C,MX48*%
X86152500Y-63610000D03*
D12*
X84882500Y-66150000D03*
D11*
X92502500Y-61070000D03*
D10*
X89962500Y-66150000D03*
D12*
X95042500Y-66150000D03*
%TD*%
%TO.C,MX49*%
X114092500Y-66150000D03*
D11*
X111552500Y-61070000D03*
D12*
X103932500Y-66150000D03*
D10*
X109012500Y-66150000D03*
D11*
X105202500Y-63610000D03*
%TD*%
D10*
%TO.C,MX50*%
X128062500Y-66150000D03*
D11*
X124252500Y-63610000D03*
X130602500Y-61070000D03*
D12*
X133142500Y-66150000D03*
X122982500Y-66150000D03*
%TD*%
D10*
%TO.C,MX51*%
X147112500Y-66150000D03*
D11*
X143302500Y-63610000D03*
D12*
X142032500Y-66150000D03*
D11*
X149652500Y-61070000D03*
D12*
X152192500Y-66150000D03*
%TD*%
D10*
%TO.C,MX52*%
X166162500Y-66150000D03*
D11*
X168702500Y-61070000D03*
D12*
X161082500Y-66150000D03*
D11*
X162352500Y-63610000D03*
D12*
X171242500Y-66150000D03*
%TD*%
%TO.C,MX53*%
X180132500Y-66150000D03*
D11*
X181402500Y-63610000D03*
D10*
X185212500Y-66150000D03*
D12*
X190292500Y-66150000D03*
D11*
X187752500Y-61070000D03*
%TD*%
D12*
%TO.C,MX54*%
X199182500Y-66150000D03*
D11*
X200452500Y-63610000D03*
D12*
X209342500Y-66150000D03*
D10*
X204262500Y-66150000D03*
D11*
X206802500Y-61070000D03*
%TD*%
D10*
%TO.C,MX55*%
X223312500Y-66150000D03*
D11*
X219502500Y-63610000D03*
D12*
X228392500Y-66150000D03*
D11*
X225852500Y-61070000D03*
D12*
X218232500Y-66150000D03*
%TD*%
%TO.C,MX56*%
X244426250Y-66150000D03*
D11*
X246966250Y-71230000D03*
X253316250Y-68690000D03*
D10*
X249506250Y-66150000D03*
D12*
X254586250Y-66150000D03*
%TD*%
D11*
%TO.C,MX57*%
X271890000Y-63610000D03*
X278240000Y-61070000D03*
D12*
X270620000Y-66150000D03*
X280780000Y-66150000D03*
D10*
X275700000Y-66150000D03*
%TD*%
D12*
%TO.C,MX60*%
X40273750Y-85200000D03*
D10*
X35193750Y-85200000D03*
D11*
X37733750Y-80120000D03*
D12*
X30113750Y-85200000D03*
D11*
X31383750Y-82660000D03*
%TD*%
D12*
%TO.C,MX61*%
X53926250Y-85200000D03*
D10*
X59006250Y-85200000D03*
D12*
X64086250Y-85200000D03*
D11*
X61546250Y-80120000D03*
X55196250Y-82660000D03*
%TD*%
D12*
%TO.C,MX63*%
X196801250Y-85200000D03*
D10*
X201881250Y-85200000D03*
D11*
X198071250Y-82660000D03*
D12*
X206961250Y-85200000D03*
D11*
X204421250Y-80120000D03*
%TD*%
D12*
%TO.C,MX64*%
X220613750Y-85200000D03*
D10*
X225693750Y-85200000D03*
D12*
X230773750Y-85200000D03*
D11*
X221883750Y-82660000D03*
X228233750Y-80120000D03*
%TD*%
%TO.C,MX65*%
X245696250Y-82660000D03*
D12*
X244426250Y-85200000D03*
D11*
X252046250Y-80120000D03*
D10*
X249506250Y-85200000D03*
D12*
X254586250Y-85200000D03*
%TD*%
D11*
%TO.C,MX66*%
X269508750Y-82660000D03*
D12*
X268238750Y-85200000D03*
D11*
X275858750Y-80120000D03*
D12*
X278398750Y-85200000D03*
D10*
X273318750Y-85200000D03*
%TD*%
D11*
%TO.C,MX71*%
X227122500Y-87740000D03*
D10*
X223312500Y-85200000D03*
D11*
X220772500Y-90280000D03*
D12*
X228392500Y-85200000D03*
X218232500Y-85200000D03*
%TD*%
%TO.C,MX8*%
X147430000Y-9000000D03*
X137270000Y-9000000D03*
D10*
X142350000Y-9000000D03*
D11*
X144890000Y-3920000D03*
X138540000Y-6460000D03*
%TD*%
%TO.C,MX58*%
X261571250Y-61070000D03*
D10*
X270969250Y-74405000D03*
D12*
X253951250Y-66150000D03*
D13*
X247093250Y-59165000D03*
D10*
X247093250Y-74405000D03*
D12*
X264111250Y-66150000D03*
D10*
X259031250Y-66150000D03*
D13*
X270969250Y-59165000D03*
D11*
X255221250Y-63610000D03*
%TD*%
D12*
%TO.C,MX69*%
X56307500Y-85200000D03*
D11*
X65197500Y-87740000D03*
D10*
X61387500Y-85200000D03*
D11*
X58847500Y-90280000D03*
D12*
X66467500Y-85200000D03*
%TD*%
D13*
%TO.C,MX70*%
X85200000Y-92185000D03*
D10*
X85200000Y-76945000D03*
X142350000Y-85200000D03*
D11*
X144890000Y-80120000D03*
D13*
X199500000Y-92185000D03*
D11*
X138540000Y-82660000D03*
D12*
X147430000Y-85200000D03*
X137270000Y-85200000D03*
D10*
X199500000Y-76945000D03*
%TD*%
%TO.C,MX72*%
X247125000Y-85200000D03*
D12*
X242045000Y-85200000D03*
D11*
X244585000Y-90280000D03*
D12*
X252205000Y-85200000D03*
D11*
X250935000Y-87740000D03*
%TD*%
D12*
%TO.C,MX73*%
X276017500Y-85200000D03*
D11*
X274747500Y-87740000D03*
D12*
X265857500Y-85200000D03*
D11*
X268397500Y-90280000D03*
D10*
X270937500Y-85200000D03*
%TD*%
%TO.C,MX62*%
X130443750Y-85200000D03*
D11*
X132983750Y-80120000D03*
D12*
X125363750Y-85200000D03*
D10*
X80443850Y-76945000D03*
X180443650Y-76945000D03*
D12*
X135523750Y-85200000D03*
D13*
X180443650Y-92185000D03*
D11*
X126633750Y-82660000D03*
D13*
X80443850Y-92185000D03*
%TD*%
D10*
%TO.C,MX59*%
X11381250Y-85200000D03*
D11*
X13921250Y-80120000D03*
X7571250Y-82660000D03*
D12*
X6301250Y-85200000D03*
X16461250Y-85200000D03*
%TD*%
%TO.C,MX67*%
X8682500Y-85200000D03*
D11*
X17572500Y-87740000D03*
X11222500Y-90280000D03*
D12*
X18842500Y-85200000D03*
D10*
X13762500Y-85200000D03*
%TD*%
%TO.C,MX15*%
X275700000Y-9000000D03*
D11*
X279510000Y-11540000D03*
D12*
X280780000Y-9000000D03*
X270620000Y-9000000D03*
D11*
X273160000Y-14080000D03*
%TD*%
D14*
%TO.C,S8*%
X26090000Y-85190072D03*
%TD*%
D15*
%TO.C,S2*%
X259890000Y-27692050D03*
%TD*%
D16*
%TO.C,J3*%
X172140000Y-90138600D03*
D17*
X170140000Y-90138600D03*
X168140000Y-90138600D03*
X166140000Y-90138600D03*
X164140000Y-90138600D03*
X162140000Y-90138600D03*
X172140000Y-92221400D03*
X170140000Y-92221400D03*
X168140000Y-92221400D03*
X166140000Y-92221400D03*
X164140000Y-92221400D03*
X162140000Y-92221400D03*
%TD*%
D15*
%TO.C,*%
X259895000Y-85190072D03*
%TD*%
D12*
%TO.C,MX68*%
X32498000Y-85200000D03*
D11*
X35038000Y-90280000D03*
D12*
X42658000Y-85200000D03*
D11*
X41388000Y-87740000D03*
D10*
X37578000Y-85200000D03*
%TD*%
D15*
%TO.C,S1*%
X25065000Y-28040024D03*
%TD*%
D18*
%TO.C,S7*%
X142340000Y-37215000D03*
%TD*%
%TO.C,S3*%
X128052608Y-46890040D03*
%TD*%
D14*
%TO.C,S6*%
X189965160Y-84990000D03*
%TD*%
D19*
%TO.C,J2*%
X15280000Y-5170000D03*
X21060000Y-5170000D03*
D20*
X22490000Y-5700000D03*
D21*
X22490000Y-1520000D03*
D20*
X13850000Y-5700000D03*
D21*
X13850000Y-1520000D03*
%TD*%
M02*
