%TF.GenerationSoftware,KiCad,Pcbnew,(6.0.6)*%
%TF.CreationDate,2023-05-08T18:28:51+05:30*%
%TF.ProjectId,new_stuff,6e65775f-7374-4756-9666-2e6b69636164,rev?*%
%TF.SameCoordinates,Original*%
%TF.FileFunction,Paste,Bot*%
%TF.FilePolarity,Positive*%
%FSLAX46Y46*%
G04 Gerber Fmt 4.6, Leading zero omitted, Abs format (unit mm)*
G04 Created by KiCad (PCBNEW (6.0.6)) date 2023-05-08 18:28:51*
%MOMM*%
%LPD*%
G01*
G04 APERTURE LIST*
G04 Aperture macros list*
%AMRoundRect*
0 Rectangle with rounded corners*
0 $1 Rounding radius*
0 $2 $3 $4 $5 $6 $7 $8 $9 X,Y pos of 4 corners*
0 Add a 4 corners polygon primitive as box body*
4,1,4,$2,$3,$4,$5,$6,$7,$8,$9,$2,$3,0*
0 Add four circle primitives for the rounded corners*
1,1,$1+$1,$2,$3*
1,1,$1+$1,$4,$5*
1,1,$1+$1,$6,$7*
1,1,$1+$1,$8,$9*
0 Add four rect primitives between the rounded corners*
20,1,$1+$1,$2,$3,$4,$5,0*
20,1,$1+$1,$4,$5,$6,$7,0*
20,1,$1+$1,$6,$7,$8,$9,0*
20,1,$1+$1,$8,$9,$2,$3,0*%
G04 Aperture macros list end*
%ADD10R,2.550000X2.500000*%
%ADD11R,2.550000X2.000000*%
%ADD12R,2.550000X1.500000*%
%ADD13R,2.550000X1.300000*%
%ADD14RoundRect,0.150000X-0.625000X0.150000X-0.625000X-0.150000X0.625000X-0.150000X0.625000X0.150000X0*%
%ADD15RoundRect,0.250000X-0.650000X0.350000X-0.650000X-0.350000X0.650000X-0.350000X0.650000X0.350000X0*%
%ADD16R,1.200000X0.900000*%
%ADD17RoundRect,0.225000X-0.250000X0.225000X-0.250000X-0.225000X0.250000X-0.225000X0.250000X0.225000X0*%
%ADD18RoundRect,0.225000X-0.225000X-0.250000X0.225000X-0.250000X0.225000X0.250000X-0.225000X0.250000X0*%
%ADD19RoundRect,0.200000X0.200000X0.275000X-0.200000X0.275000X-0.200000X-0.275000X0.200000X-0.275000X0*%
%ADD20RoundRect,0.200000X-0.200000X-0.275000X0.200000X-0.275000X0.200000X0.275000X-0.200000X0.275000X0*%
%ADD21RoundRect,0.225000X0.225000X0.250000X-0.225000X0.250000X-0.225000X-0.250000X0.225000X-0.250000X0*%
%ADD22R,0.600000X1.450000*%
%ADD23R,0.300000X1.450000*%
%ADD24RoundRect,0.200000X0.275000X-0.200000X0.275000X0.200000X-0.275000X0.200000X-0.275000X-0.200000X0*%
%ADD25RoundRect,0.200000X-0.275000X0.200000X-0.275000X-0.200000X0.275000X-0.200000X0.275000X0.200000X0*%
%ADD26RoundRect,0.250000X-0.450000X0.325000X-0.450000X-0.325000X0.450000X-0.325000X0.450000X0.325000X0*%
%ADD27RoundRect,0.218750X0.256250X-0.218750X0.256250X0.218750X-0.256250X0.218750X-0.256250X-0.218750X0*%
%ADD28R,2.000000X1.500000*%
%ADD29R,2.000000X3.800000*%
%ADD30R,1.700000X1.000000*%
%ADD31RoundRect,0.150000X-0.150000X0.512500X-0.150000X-0.512500X0.150000X-0.512500X0.150000X0.512500X0*%
%ADD32R,1.400000X1.000000*%
%ADD33RoundRect,0.225000X0.250000X-0.225000X0.250000X0.225000X-0.250000X0.225000X-0.250000X-0.225000X0*%
%ADD34RoundRect,0.150000X-0.650000X-0.150000X0.650000X-0.150000X0.650000X0.150000X-0.650000X0.150000X0*%
%ADD35R,1.200000X1.400000*%
%ADD36RoundRect,0.250000X-0.292217X0.292217X-0.292217X-0.292217X0.292217X-0.292217X0.292217X0.292217X0*%
%ADD37RoundRect,0.050000X-0.050000X0.387500X-0.050000X-0.387500X0.050000X-0.387500X0.050000X0.387500X0*%
%ADD38RoundRect,0.050000X-0.387500X0.050000X-0.387500X-0.050000X0.387500X-0.050000X0.387500X0.050000X0*%
G04 APERTURE END LIST*
D10*
%TO.C,MX1*%
X16085000Y-11540000D03*
X3158000Y-14080000D03*
%TD*%
%TO.C,MX2*%
X35135000Y-11540000D03*
X22208000Y-14080000D03*
%TD*%
%TO.C,MX3*%
X40015000Y-6460000D03*
X52942000Y-3920000D03*
%TD*%
%TO.C,MX4*%
X59065000Y-6460000D03*
X71992000Y-3920000D03*
%TD*%
%TO.C,MX5*%
X78115000Y-6460000D03*
X91042000Y-3920000D03*
%TD*%
%TO.C,MX6*%
X97165000Y-6460000D03*
X110092000Y-3920000D03*
%TD*%
%TO.C,MX7*%
X116215000Y-6460000D03*
D11*
X129142000Y-3920000D03*
%TD*%
D10*
%TO.C,MX9*%
X154315000Y-6460000D03*
X167242000Y-3920000D03*
%TD*%
%TO.C,MX10*%
X173365000Y-6460000D03*
D11*
X186292000Y-3920000D03*
%TD*%
D10*
%TO.C,MX11*%
X192415000Y-6460000D03*
X205342000Y-3920000D03*
%TD*%
%TO.C,MX12*%
X211465000Y-6460000D03*
X224392000Y-3920000D03*
%TD*%
%TO.C,MX13*%
X230515000Y-6460000D03*
X243442000Y-3920000D03*
%TD*%
%TO.C,MX14*%
X263735000Y-11540000D03*
X250808000Y-14080000D03*
%TD*%
%TO.C,MX16*%
X259090000Y-6460000D03*
D11*
X272017000Y-3920000D03*
%TD*%
D10*
%TO.C,MX17*%
X6677500Y-25510000D03*
X19604500Y-22970000D03*
%TD*%
%TO.C,MX18*%
X30490000Y-25510000D03*
X43417000Y-22970000D03*
%TD*%
%TO.C,MX19*%
X49540000Y-25510000D03*
X62467000Y-22970000D03*
%TD*%
%TO.C,MX20*%
X68590000Y-25510000D03*
X81517000Y-22970000D03*
%TD*%
%TO.C,MX21*%
X87640000Y-25510000D03*
X100567000Y-22970000D03*
%TD*%
%TO.C,MX22*%
X106690000Y-25510000D03*
X119617000Y-22970000D03*
%TD*%
%TO.C,MX23*%
X125740000Y-25510000D03*
X138667000Y-22970000D03*
%TD*%
%TO.C,MX24*%
X144790000Y-25510000D03*
X157717000Y-22970000D03*
%TD*%
%TO.C,MX25*%
X163840000Y-25510000D03*
X176767000Y-22970000D03*
%TD*%
%TO.C,MX26*%
X182890000Y-25510000D03*
X195817000Y-22970000D03*
%TD*%
%TO.C,MX27*%
X201940000Y-25510000D03*
X214867000Y-22970000D03*
%TD*%
%TO.C,MX28*%
X220990000Y-25510000D03*
X233917000Y-22970000D03*
%TD*%
%TO.C,MX29*%
X240040000Y-25510000D03*
X252967000Y-22970000D03*
%TD*%
D12*
%TO.C,MX30*%
X263852500Y-25510000D03*
D10*
X276779500Y-22970000D03*
%TD*%
%TO.C,MX31*%
X18466250Y-49640000D03*
X5539250Y-52180000D03*
%TD*%
%TO.C,MX32*%
X9058750Y-44560000D03*
X21985750Y-42020000D03*
%TD*%
%TO.C,MX33*%
X35252500Y-44560000D03*
X48179500Y-42020000D03*
%TD*%
%TO.C,MX34*%
X54302500Y-44560000D03*
X67229500Y-42020000D03*
%TD*%
%TO.C,MX35*%
X73352500Y-44560000D03*
X86279500Y-42020000D03*
%TD*%
%TO.C,MX36*%
X92402500Y-44560000D03*
X105329500Y-42020000D03*
%TD*%
%TO.C,MX37*%
X111452500Y-44560000D03*
X124379500Y-42020000D03*
%TD*%
D13*
%TO.C,MX38*%
X130502500Y-44560000D03*
D10*
X143429500Y-42020000D03*
%TD*%
%TO.C,MX39*%
X149552500Y-44560000D03*
X162479500Y-42020000D03*
%TD*%
%TO.C,MX40*%
X168602500Y-44560000D03*
X181529500Y-42020000D03*
%TD*%
%TO.C,MX41*%
X187652500Y-44560000D03*
X200579500Y-42020000D03*
%TD*%
%TO.C,MX42*%
X206702500Y-44560000D03*
X219629500Y-42020000D03*
%TD*%
%TO.C,MX43*%
X225752500Y-44560000D03*
X238679500Y-42020000D03*
%TD*%
%TO.C,MX44*%
X256708750Y-44560000D03*
X269635750Y-42020000D03*
%TD*%
%TO.C,MX45*%
X13821250Y-63610000D03*
X26748250Y-61070000D03*
%TD*%
%TO.C,MX46*%
X44777500Y-63610000D03*
X57704500Y-61070000D03*
%TD*%
%TO.C,MX47*%
X63827500Y-63610000D03*
X76754500Y-61070000D03*
%TD*%
%TO.C,MX48*%
X82877500Y-63610000D03*
X95804500Y-61070000D03*
%TD*%
%TO.C,MX49*%
X101927500Y-63610000D03*
X114854500Y-61070000D03*
%TD*%
%TO.C,MX50*%
X120977500Y-63610000D03*
X133904500Y-61070000D03*
%TD*%
%TO.C,MX51*%
X140027500Y-63610000D03*
X152954500Y-61070000D03*
%TD*%
%TO.C,MX52*%
X159077500Y-63610000D03*
X172004500Y-61070000D03*
%TD*%
%TO.C,MX53*%
X178127500Y-63610000D03*
X191054500Y-61070000D03*
%TD*%
%TO.C,MX54*%
X197177500Y-63610000D03*
X210104500Y-61070000D03*
%TD*%
%TO.C,MX55*%
X216227500Y-63610000D03*
X229154500Y-61070000D03*
%TD*%
%TO.C,MX56*%
X256591250Y-68690000D03*
X243664250Y-71230000D03*
%TD*%
%TO.C,MX57*%
X268615000Y-63610000D03*
X281542000Y-61070000D03*
%TD*%
D12*
%TO.C,MX60*%
X28108750Y-82660000D03*
D10*
X41035750Y-80120000D03*
%TD*%
%TO.C,MX61*%
X51921250Y-82660000D03*
X64848250Y-80120000D03*
%TD*%
%TO.C,MX63*%
X194796250Y-82660000D03*
X207723250Y-80120000D03*
%TD*%
%TO.C,MX64*%
X218608750Y-82660000D03*
X231535750Y-80120000D03*
%TD*%
%TO.C,MX65*%
X242421250Y-82660000D03*
X255348250Y-80120000D03*
%TD*%
%TO.C,MX66*%
X266233750Y-82660000D03*
X279160750Y-80120000D03*
%TD*%
%TO.C,MX71*%
X230397500Y-87740000D03*
X217470500Y-90280000D03*
%TD*%
%TO.C,MX8*%
X135265000Y-6460000D03*
X148192000Y-3920000D03*
%TD*%
%TO.C,MX58*%
X251946250Y-63610000D03*
X264873250Y-61070000D03*
%TD*%
%TO.C,MX69*%
X68472500Y-87740000D03*
X55545500Y-90280000D03*
%TD*%
D11*
%TO.C,MX70*%
X135265000Y-82660000D03*
D10*
X148192000Y-80120000D03*
%TD*%
%TO.C,MX72*%
X254210000Y-87740000D03*
X241283000Y-90280000D03*
%TD*%
%TO.C,MX73*%
X278022500Y-87740000D03*
X265095500Y-90280000D03*
%TD*%
%TO.C,MX62*%
X123358750Y-82660000D03*
D11*
X136285750Y-80120000D03*
%TD*%
D10*
%TO.C,MX59*%
X4296250Y-82660000D03*
X17223250Y-80120000D03*
%TD*%
%TO.C,MX67*%
X20847500Y-87740000D03*
X7920500Y-90280000D03*
%TD*%
%TO.C,MX15*%
X282785000Y-11540000D03*
X269858000Y-14080000D03*
%TD*%
%TO.C,MX68*%
X44663000Y-87740000D03*
X31736000Y-90280000D03*
%TD*%
D14*
%TO.C,JST*%
X45000000Y-16000000D03*
X45000000Y-17000000D03*
X45000000Y-18000000D03*
X45000000Y-19000000D03*
D15*
X48875000Y-20300000D03*
X48875000Y-14700000D03*
%TD*%
D16*
%TO.C,D1*%
X16220000Y-17930000D03*
X16220000Y-14630000D03*
%TD*%
%TO.C,D2*%
X37830000Y-13080000D03*
X37830000Y-9780000D03*
%TD*%
%TO.C,D3*%
X40170000Y-13100000D03*
X40170000Y-9800000D03*
%TD*%
%TO.C,D4*%
X57920000Y-13090000D03*
X57920000Y-9790000D03*
%TD*%
%TO.C,D5*%
X76890000Y-13100000D03*
X76890000Y-9800000D03*
%TD*%
%TO.C,D6*%
X95860000Y-13110000D03*
X95860000Y-9810000D03*
%TD*%
%TO.C,D7*%
X115010000Y-13120000D03*
X115010000Y-9820000D03*
%TD*%
%TO.C,D8*%
X134060000Y-13150000D03*
X134060000Y-9850000D03*
%TD*%
%TO.C,D9*%
X153140000Y-13110000D03*
X153140000Y-9810000D03*
%TD*%
%TO.C,D10*%
X172230000Y-13090000D03*
X172230000Y-9790000D03*
%TD*%
%TO.C,D11*%
X191140000Y-13120000D03*
X191140000Y-9820000D03*
%TD*%
%TO.C,D12*%
X210150000Y-13140000D03*
X210150000Y-9840000D03*
%TD*%
%TO.C,D14*%
X247490000Y-13090000D03*
X247490000Y-9790000D03*
%TD*%
%TO.C,D15*%
X245500000Y-13090000D03*
X245500000Y-9790000D03*
%TD*%
%TO.C,D16*%
X5660000Y-31980000D03*
X5660000Y-28680000D03*
%TD*%
%TO.C,D17*%
X29350000Y-32040000D03*
X29350000Y-28740000D03*
%TD*%
%TO.C,D18*%
X48410000Y-32090000D03*
X48410000Y-28790000D03*
%TD*%
%TO.C,D19*%
X67440000Y-32110000D03*
X67440000Y-28810000D03*
%TD*%
%TO.C,D20*%
X86410000Y-32070000D03*
X86410000Y-28770000D03*
%TD*%
%TO.C,D21*%
X105310000Y-32090000D03*
X105310000Y-28790000D03*
%TD*%
%TO.C,D22*%
X124310000Y-32100000D03*
X124310000Y-28800000D03*
%TD*%
%TO.C,D23*%
X143360000Y-32110000D03*
X143360000Y-28810000D03*
%TD*%
%TO.C,D24*%
X162450000Y-32080000D03*
X162450000Y-28780000D03*
%TD*%
%TO.C,D25*%
X181530000Y-32070000D03*
X181530000Y-28770000D03*
%TD*%
%TO.C,D26*%
X200610000Y-32140000D03*
X200610000Y-28840000D03*
%TD*%
%TO.C,D27*%
X219620000Y-32120000D03*
X219620000Y-28820000D03*
%TD*%
%TO.C,D28*%
X238600000Y-32090000D03*
X238600000Y-28790000D03*
%TD*%
%TO.C,D29*%
X262720000Y-34730000D03*
X262720000Y-31430000D03*
%TD*%
%TO.C,D30*%
X23150000Y-51400000D03*
X23150000Y-48100000D03*
%TD*%
%TO.C,D31*%
X34070000Y-51360000D03*
X34070000Y-48060000D03*
%TD*%
%TO.C,D32*%
X52950000Y-51400000D03*
X52950000Y-48100000D03*
%TD*%
%TO.C,D33*%
X71980000Y-51420000D03*
X71980000Y-48120000D03*
%TD*%
%TO.C,D35*%
X110030000Y-51390000D03*
X110030000Y-48090000D03*
%TD*%
%TO.C,D36*%
X128890000Y-53140000D03*
X128890000Y-49840000D03*
%TD*%
%TO.C,D37*%
X148080000Y-51400000D03*
X148080000Y-48100000D03*
%TD*%
%TO.C,D38*%
X167080000Y-51400000D03*
X167080000Y-48100000D03*
%TD*%
%TO.C,D39*%
X186140000Y-51370000D03*
X186140000Y-48070000D03*
%TD*%
%TO.C,D40*%
X205230000Y-51420000D03*
X205230000Y-48120000D03*
%TD*%
%TO.C,D41*%
X224050000Y-51400000D03*
X224050000Y-48100000D03*
%TD*%
%TO.C,D42*%
X255450000Y-51380000D03*
X255450000Y-48080000D03*
%TD*%
%TO.C,D43*%
X13200000Y-69890000D03*
X13200000Y-66590000D03*
%TD*%
%TO.C,D44*%
X43550000Y-69850000D03*
X43550000Y-66550000D03*
%TD*%
%TO.C,D45*%
X62780000Y-69850000D03*
X62780000Y-66550000D03*
%TD*%
%TO.C,D46*%
X81660000Y-69820000D03*
X81660000Y-66520000D03*
%TD*%
%TO.C,D47*%
X100850000Y-69910000D03*
X100850000Y-66610000D03*
%TD*%
%TO.C,D48*%
X119820000Y-69850000D03*
X119820000Y-66550000D03*
%TD*%
%TO.C,D49*%
X139060000Y-69910000D03*
X139060000Y-66610000D03*
%TD*%
%TO.C,D50*%
X158020000Y-69850000D03*
X158020000Y-66550000D03*
%TD*%
%TO.C,D51*%
X177130000Y-69980000D03*
X177130000Y-66680000D03*
%TD*%
%TO.C,D52*%
X195850000Y-69910000D03*
X195850000Y-66610000D03*
%TD*%
%TO.C,D53*%
X215130000Y-69910000D03*
X215130000Y-66610000D03*
%TD*%
%TO.C,D54*%
X240130000Y-69960000D03*
X240130000Y-66660000D03*
%TD*%
%TO.C,D55*%
X237640000Y-69860000D03*
X237640000Y-66560000D03*
%TD*%
%TO.C,D56*%
X24540000Y-91250000D03*
X24540000Y-87950000D03*
%TD*%
%TO.C,D57*%
X26880000Y-91270000D03*
X26880000Y-87970000D03*
%TD*%
%TO.C,D58*%
X51000000Y-89470000D03*
X51000000Y-86170000D03*
%TD*%
%TO.C,D59*%
X121840000Y-89330000D03*
X121840000Y-86030000D03*
%TD*%
%TO.C,D61*%
X213787500Y-87643750D03*
X213787500Y-84343750D03*
%TD*%
%TO.C,D62*%
X237550000Y-87643750D03*
X237550000Y-84343750D03*
%TD*%
%TO.C,D63*%
X261950000Y-80420000D03*
X261950000Y-77120000D03*
%TD*%
%TO.C,D13*%
X229160000Y-13110000D03*
X229160000Y-9810000D03*
%TD*%
%TO.C,D34*%
X91040000Y-51390000D03*
X91040000Y-48090000D03*
%TD*%
%TO.C,D60*%
X194070000Y-90100000D03*
X194070000Y-86800000D03*
%TD*%
D17*
%TO.C,1u*%
X147470000Y-87260000D03*
X147470000Y-88810000D03*
%TD*%
D18*
%TO.C,22u*%
X114355000Y-79230000D03*
X115905000Y-79230000D03*
%TD*%
D19*
%TO.C,1K*%
X154695000Y-79270000D03*
X153045000Y-79270000D03*
%TD*%
D20*
%TO.C,10K*%
X156165000Y-79270000D03*
X157815000Y-79270000D03*
%TD*%
D21*
%TO.C,100n*%
X160885000Y-79390000D03*
X159335000Y-79390000D03*
%TD*%
D22*
%TO.C,J2*%
X14920000Y-6615000D03*
X15720000Y-6615000D03*
D23*
X16920000Y-6615000D03*
X17920000Y-6615000D03*
X18420000Y-6615000D03*
X19420000Y-6615000D03*
D22*
X20620000Y-6615000D03*
X21420000Y-6615000D03*
X21420000Y-6615000D03*
X20620000Y-6615000D03*
D23*
X19920000Y-6615000D03*
X18920000Y-6615000D03*
X17420000Y-6615000D03*
X16420000Y-6615000D03*
D22*
X15720000Y-6615000D03*
X14920000Y-6615000D03*
%TD*%
D24*
%TO.C,22r*%
X151930000Y-88875000D03*
X151930000Y-87225000D03*
%TD*%
D17*
%TO.C,100n*%
X158800000Y-87275000D03*
X158800000Y-88825000D03*
%TD*%
D25*
%TO.C,1K*%
X174390000Y-87125000D03*
X174390000Y-88775000D03*
%TD*%
D26*
%TO.C,500ma*%
X27860000Y-20775000D03*
X27860000Y-22825000D03*
%TD*%
D18*
%TO.C,100n*%
X173080000Y-82820000D03*
X174630000Y-82820000D03*
%TD*%
D27*
%TO.C,LED*%
X175920000Y-88727500D03*
X175920000Y-87152500D03*
%TD*%
D17*
%TO.C,100n*%
X160310000Y-87675000D03*
X160310000Y-89225000D03*
%TD*%
D24*
%TO.C,5.1k*%
X10920000Y-5915000D03*
X10920000Y-4265000D03*
%TD*%
D28*
%TO.C,U2*%
X109590000Y-86410000D03*
D29*
X115890000Y-84110000D03*
D28*
X109590000Y-84110000D03*
X109590000Y-81810000D03*
%TD*%
D30*
%TO.C,SW1*%
X139690000Y-91830000D03*
X133390000Y-91830000D03*
X133390000Y-88030000D03*
X139690000Y-88030000D03*
%TD*%
D18*
%TO.C,100n*%
X172455000Y-84320000D03*
X174005000Y-84320000D03*
%TD*%
D31*
%TO.C,U1*%
X23410000Y-20832500D03*
X24360000Y-20832500D03*
X25310000Y-20832500D03*
X25310000Y-23107500D03*
X24360000Y-23107500D03*
X23410000Y-23107500D03*
%TD*%
D30*
%TO.C,SW2*%
X180120000Y-88520000D03*
X186420000Y-88520000D03*
D32*
X186420000Y-84720000D03*
D30*
X180120000Y-84720000D03*
%TD*%
D33*
%TO.C,100n*%
X148960000Y-88815000D03*
X148960000Y-87265000D03*
%TD*%
D21*
%TO.C,22u*%
X115945000Y-88980000D03*
X114395000Y-88980000D03*
%TD*%
D24*
%TO.C,5.1k*%
X25100000Y-5785000D03*
X25100000Y-4135000D03*
%TD*%
D17*
%TO.C,22p*%
X179930000Y-81295000D03*
X179930000Y-82845000D03*
%TD*%
D24*
%TO.C,22r*%
X153430000Y-88870000D03*
X153430000Y-87220000D03*
%TD*%
D17*
%TO.C,100n*%
X150440000Y-87270000D03*
X150440000Y-88820000D03*
%TD*%
%TO.C,1u*%
X157300000Y-87265000D03*
X157300000Y-88815000D03*
%TD*%
%TO.C,22p*%
X181450000Y-81305000D03*
X181450000Y-82855000D03*
%TD*%
D18*
%TO.C,100n*%
X168005000Y-77160000D03*
X169555000Y-77160000D03*
%TD*%
D34*
%TO.C,U3*%
X152270000Y-85175000D03*
X152270000Y-83905000D03*
X152270000Y-82635000D03*
X152270000Y-81365000D03*
X159470000Y-81365000D03*
X159470000Y-82635000D03*
X159470000Y-83905000D03*
X159470000Y-85175000D03*
%TD*%
D17*
%TO.C,100n*%
X155800000Y-87265000D03*
X155800000Y-88815000D03*
%TD*%
D35*
%TO.C,Y1*%
X178120000Y-81690000D03*
X178120000Y-83890000D03*
X176420000Y-83890000D03*
X176420000Y-81690000D03*
%TD*%
D20*
%TO.C,1k*%
X172415000Y-81310000D03*
X174065000Y-81310000D03*
%TD*%
D36*
%TO.C,U4*%
X165052500Y-83627500D03*
X165052500Y-82352500D03*
X166327500Y-82352500D03*
X166327500Y-83627500D03*
D37*
X163090000Y-79552500D03*
X163490000Y-79552500D03*
X163890000Y-79552500D03*
X164290000Y-79552500D03*
X164690000Y-79552500D03*
X165090000Y-79552500D03*
X165490000Y-79552500D03*
X165890000Y-79552500D03*
X166290000Y-79552500D03*
X166690000Y-79552500D03*
X167090000Y-79552500D03*
X167490000Y-79552500D03*
X167890000Y-79552500D03*
X168290000Y-79552500D03*
D38*
X169127500Y-80390000D03*
X169127500Y-80790000D03*
X169127500Y-81190000D03*
X169127500Y-81590000D03*
X169127500Y-81990000D03*
X169127500Y-82390000D03*
X169127500Y-82790000D03*
X169127500Y-83190000D03*
X169127500Y-83590000D03*
X169127500Y-83990000D03*
X169127500Y-84390000D03*
X169127500Y-84790000D03*
X169127500Y-85190000D03*
X169127500Y-85590000D03*
D37*
X168290000Y-86427500D03*
X167890000Y-86427500D03*
X167490000Y-86427500D03*
X167090000Y-86427500D03*
X166690000Y-86427500D03*
X166290000Y-86427500D03*
X165890000Y-86427500D03*
X165490000Y-86427500D03*
X165090000Y-86427500D03*
X164690000Y-86427500D03*
X164290000Y-86427500D03*
X163890000Y-86427500D03*
X163490000Y-86427500D03*
X163090000Y-86427500D03*
D38*
X162252500Y-85590000D03*
X162252500Y-85190000D03*
X162252500Y-84790000D03*
X162252500Y-84390000D03*
X162252500Y-83990000D03*
X162252500Y-83590000D03*
X162252500Y-83190000D03*
X162252500Y-82790000D03*
X162252500Y-82390000D03*
X162252500Y-81990000D03*
X162252500Y-81590000D03*
X162252500Y-81190000D03*
X162252500Y-80790000D03*
X162252500Y-80390000D03*
%TD*%
M02*
