%TF.GenerationSoftware,KiCad,Pcbnew,(6.0.6)*%
%TF.CreationDate,2023-05-08T18:28:51+05:30*%
%TF.ProjectId,new_stuff,6e65775f-7374-4756-9666-2e6b69636164,rev?*%
%TF.SameCoordinates,Original*%
%TF.FileFunction,Legend,Top*%
%TF.FilePolarity,Positive*%
%FSLAX46Y46*%
G04 Gerber Fmt 4.6, Leading zero omitted, Abs format (unit mm)*
G04 Created by KiCad (PCBNEW (6.0.6)) date 2023-05-08 18:28:51*
%MOMM*%
%LPD*%
G01*
G04 APERTURE LIST*
%ADD10C,1.000000*%
%ADD11C,0.150000*%
%ADD12C,0.300000*%
G04 APERTURE END LIST*
D10*
X188902814Y-94223694D02*
G75*
G03*
X182602785Y-94223699I-3150014J-735906D01*
G01*
X204174411Y-74056982D02*
G75*
G03*
X205491354Y-74937044I1710389J1134082D01*
G01*
X205182762Y-75995040D02*
X229292443Y-75989939D01*
X275702813Y-94223695D02*
G75*
G03*
X269402786Y-94223699I-3150013J-735905D01*
G01*
X282702786Y-94223686D02*
G75*
G03*
X284702786Y-92223702I14J1999986D01*
G01*
X188902786Y-23704D02*
X243977278Y-23740D01*
X131214276Y-23704D02*
X152521671Y-23701D01*
X241735078Y-56712400D02*
G75*
G03*
X241730000Y-55610000I-2578J551200D01*
G01*
X279379788Y-56643694D02*
G75*
G03*
X280522778Y-57862693I1142812J-73806D01*
G01*
X204174432Y-74056959D02*
G75*
G03*
X194952173Y-74071263I-4605032J-3938441D01*
G01*
X184138905Y-74798644D02*
G75*
G03*
X176722391Y-74798303I-3708405J-3223356D01*
G01*
X52845288Y-17433645D02*
G75*
G03*
X52835289Y-18536059I11312J-551355D01*
G01*
X90572810Y-75952665D02*
X174661129Y-75975656D01*
X193816262Y-75952639D02*
X186043862Y-76017900D01*
X248774370Y-18527337D02*
G75*
G03*
X248769292Y-17425063I-2570J551137D01*
G01*
X235990276Y-94223698D02*
X269402785Y-94223698D01*
X74746283Y-74897123D02*
G75*
G03*
X76066944Y-74016360I-389883J2015123D01*
G01*
X80156415Y-73072149D02*
X85508178Y-73073519D01*
X182602813Y-23694D02*
G75*
G03*
X188902785Y-23703I3149987J735894D01*
G01*
X275702785Y-94223701D02*
X282702786Y-94223701D01*
X185035520Y-74079829D02*
G75*
G03*
X175813273Y-74094123I-4605020J-3945371D01*
G01*
X13329784Y-23701D02*
X34427278Y-23704D01*
X80156415Y-73072149D02*
G75*
G03*
X76963564Y-74735180I514485J-4884251D01*
G01*
X2002784Y-94223701D02*
X9002785Y-94223701D01*
X102102788Y-94223700D02*
G75*
G03*
X95802784Y-94223700I-3150002J-735927D01*
G01*
X124914321Y-23691D02*
G75*
G03*
X131214277Y-23703I3149979J735891D01*
G01*
X7029786Y-23702D02*
G75*
G03*
X13329786Y-23702I3150000J735926D01*
G01*
X2785Y-55373693D02*
X4094776Y-55373693D01*
X241735078Y-56712358D02*
X38585878Y-56712357D01*
X80171499Y-71917299D02*
G75*
G03*
X76066944Y-74016360I500401J-6041101D01*
G01*
X275703009Y-23701D02*
X282702786Y-23701D01*
X182602785Y-23701D02*
X160757277Y-23701D01*
X80171497Y-71917270D02*
X85480271Y-71917270D01*
X284702800Y-2023700D02*
G75*
G03*
X282702786Y-23700I-2000000J0D01*
G01*
X235990320Y-94223691D02*
G75*
G03*
X229690278Y-94223699I-3150020J-735909D01*
G01*
X193731292Y-74868663D02*
G75*
G03*
X194952173Y-74071263I-450292J2022763D01*
G01*
X280649778Y-55373678D02*
G75*
G03*
X279379778Y-56643693I22J-1270022D01*
G01*
X153851742Y-830134D02*
G75*
G03*
X159437848Y-830152I2793058J1457034D01*
G01*
X45332945Y-74887580D02*
X74746283Y-74897121D01*
X2002787Y-23703D02*
X7029786Y-23702D01*
X269402600Y-23748D02*
G75*
G03*
X275703010Y-23703I3150200J733048D01*
G01*
X55014283Y-94223700D02*
G75*
G03*
X48714277Y-94223699I-3150003J-735930D01*
G01*
X284702788Y-57873685D02*
X284702788Y-92223702D01*
X203277765Y-74775819D02*
G75*
G03*
X205182762Y-75995040I2099035J1181819D01*
G01*
X90999594Y-74913046D02*
X174592389Y-74891507D01*
X15302787Y-94223700D02*
G75*
G03*
X9002787Y-94223700I-3150000J-735926D01*
G01*
X45338023Y-75989938D02*
X75058566Y-75954400D01*
X184138883Y-74798669D02*
G75*
G03*
X186043862Y-76017900I2099017J1181769D01*
G01*
X185035489Y-74079857D02*
G75*
G03*
X186352454Y-74959904I1710411J1134157D01*
G01*
X75058563Y-75954365D02*
G75*
G03*
X76963564Y-74735180I-193963J2400965D01*
G01*
X2002787Y-23703D02*
G75*
G03*
X2787Y-2023703I-1J-1999999D01*
G01*
X284702786Y-2023700D02*
X284702785Y-55373693D01*
X88688227Y-74735160D02*
G75*
G03*
X85508178Y-73073519I-3710027J-3226440D01*
G01*
X102102784Y-23701D02*
X124914278Y-23699D01*
X38580800Y-55610043D02*
G75*
G03*
X38585878Y-56712357I2500J-551157D01*
G01*
X280649778Y-55373693D02*
X284702785Y-55373693D01*
X95802786Y-23702D02*
G75*
G03*
X102102786Y-23702I3150000J735926D01*
G01*
X243977321Y-23691D02*
G75*
G03*
X250277277Y-23703I3149979J735891D01*
G01*
X45332945Y-74887662D02*
G75*
G03*
X45338023Y-75989938I2555J-551138D01*
G01*
X153851692Y-830160D02*
G75*
G03*
X152521671Y-23701I-1329492J-692640D01*
G01*
X55014276Y-94223701D02*
X95802784Y-94223701D01*
X248648958Y-18538698D02*
X52835289Y-18536059D01*
X-20222Y-57862693D02*
X4043778Y-57862693D01*
X188902784Y-94223698D02*
X229690279Y-94223698D01*
X-20222Y-57862693D02*
X-20222Y-92200695D01*
X89584820Y-74016363D02*
G75*
G03*
X90999594Y-74913046I1709680J1133063D01*
G01*
X5313779Y-56592693D02*
G75*
G03*
X4094776Y-55373691I-1218999J3D01*
G01*
X247993638Y-37662358D02*
X28517318Y-37662358D01*
X250277276Y-23755D02*
X269402574Y-23754D01*
X2785Y-2023703D02*
X2785Y-55373693D01*
X186352454Y-74959904D02*
X193731289Y-74868647D01*
X40727276Y-23701D02*
X95802784Y-23701D01*
X4043778Y-57862688D02*
G75*
G03*
X5313778Y-56592693I2J1269998D01*
G01*
X15302787Y-94223700D02*
X48714278Y-94223698D01*
X88688180Y-74735194D02*
G75*
G03*
X90572810Y-75952665I2099320J1182294D01*
G01*
X174592396Y-74891538D02*
G75*
G03*
X175813273Y-74094123I-450296J2022738D01*
G01*
X102102784Y-94223701D02*
X182602786Y-94223698D01*
X247993638Y-37662400D02*
G75*
G03*
X247988560Y-36560000I-2538J551200D01*
G01*
X203277805Y-74775784D02*
G75*
G03*
X195861291Y-74775443I-3708405J-3223416D01*
G01*
X52845289Y-17433701D02*
X248643880Y-17436340D01*
X229287365Y-74887581D02*
X205491354Y-74937044D01*
X28512240Y-36560000D02*
X247988560Y-36560000D01*
X280522778Y-57862693D02*
X284702788Y-57873685D01*
X174661129Y-75975666D02*
G75*
G03*
X176722391Y-74798303I-16229J2421466D01*
G01*
X89584811Y-74016371D02*
G75*
G03*
X85480271Y-71917270I-4605011J-3942029D01*
G01*
X-20222Y-92200695D02*
G75*
G03*
X2002784Y-94223702I2023007J0D01*
G01*
X160767883Y-23644D02*
G75*
G03*
X159437848Y-830152I-483J-1499156D01*
G01*
X229292443Y-75990019D02*
G75*
G03*
X229287365Y-74887581I-2543J551219D01*
G01*
X28512240Y-36560042D02*
G75*
G03*
X28517318Y-37662358I2560J-551158D01*
G01*
X34427282Y-23700D02*
G75*
G03*
X40727277Y-23703I3149998J735920D01*
G01*
X38580800Y-55609999D02*
X241730000Y-55610000D01*
X193816262Y-75952659D02*
G75*
G03*
X195861291Y-74775443I-30662J2418159D01*
G01*
D11*
X277992857Y-40687023D02*
X277945238Y-40639404D01*
X277897619Y-40496547D01*
X277897619Y-40401309D01*
X277945238Y-40258452D01*
X278040476Y-40163214D01*
X278135714Y-40115595D01*
X278326190Y-40067976D01*
X278469047Y-40067976D01*
X278659523Y-40115595D01*
X278754761Y-40163214D01*
X278850000Y-40258452D01*
X278897619Y-40401309D01*
X278897619Y-40496547D01*
X278850000Y-40639404D01*
X278802380Y-40687023D01*
X277897619Y-41258452D02*
X277945238Y-41163214D01*
X278040476Y-41115595D01*
X278897619Y-41115595D01*
X277897619Y-41639404D02*
X278564285Y-41639404D01*
X278897619Y-41639404D02*
X278850000Y-41591785D01*
X278802380Y-41639404D01*
X278850000Y-41687023D01*
X278897619Y-41639404D01*
X278802380Y-41639404D01*
X277945238Y-42544166D02*
X277897619Y-42448928D01*
X277897619Y-42258452D01*
X277945238Y-42163214D01*
X277992857Y-42115595D01*
X278088095Y-42067976D01*
X278373809Y-42067976D01*
X278469047Y-42115595D01*
X278516666Y-42163214D01*
X278564285Y-42258452D01*
X278564285Y-42448928D01*
X278516666Y-42544166D01*
X277897619Y-42972738D02*
X278897619Y-42972738D01*
X278278571Y-43067976D02*
X277897619Y-43353690D01*
X278564285Y-43353690D02*
X278183333Y-42972738D01*
X277945238Y-44163214D02*
X277897619Y-44067976D01*
X277897619Y-43877500D01*
X277945238Y-43782261D01*
X278040476Y-43734642D01*
X278421428Y-43734642D01*
X278516666Y-43782261D01*
X278564285Y-43877500D01*
X278564285Y-44067976D01*
X278516666Y-44163214D01*
X278421428Y-44210833D01*
X278326190Y-44210833D01*
X278230952Y-43734642D01*
X277897619Y-44639404D02*
X278564285Y-44639404D01*
X278373809Y-44639404D02*
X278469047Y-44687023D01*
X278516666Y-44734642D01*
X278564285Y-44829880D01*
X278564285Y-44925119D01*
X278897619Y-45687023D02*
X278897619Y-45496547D01*
X278850000Y-45401309D01*
X278802380Y-45353690D01*
X278659523Y-45258452D01*
X278469047Y-45210833D01*
X278088095Y-45210833D01*
X277992857Y-45258452D01*
X277945238Y-45306071D01*
X277897619Y-45401309D01*
X277897619Y-45591785D01*
X277945238Y-45687023D01*
X277992857Y-45734642D01*
X278088095Y-45782261D01*
X278326190Y-45782261D01*
X278421428Y-45734642D01*
X278469047Y-45687023D01*
X278516666Y-45591785D01*
X278516666Y-45401309D01*
X278469047Y-45306071D01*
X278421428Y-45258452D01*
X278326190Y-45210833D01*
X278897619Y-46401309D02*
X278897619Y-46496547D01*
X278850000Y-46591785D01*
X278802380Y-46639404D01*
X278707142Y-46687023D01*
X278516666Y-46734642D01*
X278278571Y-46734642D01*
X278088095Y-46687023D01*
X277992857Y-46639404D01*
X277945238Y-46591785D01*
X277897619Y-46496547D01*
X277897619Y-46401309D01*
X277945238Y-46306071D01*
X277992857Y-46258452D01*
X278088095Y-46210833D01*
X278278571Y-46163214D01*
X278516666Y-46163214D01*
X278707142Y-46210833D01*
X278802380Y-46258452D01*
X278850000Y-46306071D01*
X278897619Y-46401309D01*
X277897619Y-48496547D02*
X278373809Y-48163214D01*
X277897619Y-47925119D02*
X278897619Y-47925119D01*
X278897619Y-48306071D01*
X278850000Y-48401309D01*
X278802380Y-48448928D01*
X278707142Y-48496547D01*
X278564285Y-48496547D01*
X278469047Y-48448928D01*
X278421428Y-48401309D01*
X278373809Y-48306071D01*
X278373809Y-47925119D01*
X277945238Y-49306071D02*
X277897619Y-49210833D01*
X277897619Y-49020357D01*
X277945238Y-48925119D01*
X278040476Y-48877500D01*
X278421428Y-48877500D01*
X278516666Y-48925119D01*
X278564285Y-49020357D01*
X278564285Y-49210833D01*
X278516666Y-49306071D01*
X278421428Y-49353690D01*
X278326190Y-49353690D01*
X278230952Y-48877500D01*
X278564285Y-49687023D02*
X277897619Y-49925119D01*
X278564285Y-50163214D01*
X277897619Y-51829880D02*
X277897619Y-51258452D01*
X277897619Y-51544166D02*
X278897619Y-51544166D01*
X278754761Y-51448928D01*
X278659523Y-51353690D01*
X278611904Y-51258452D01*
X277992857Y-52258452D02*
X277945238Y-52306071D01*
X277897619Y-52258452D01*
X277945238Y-52210833D01*
X277992857Y-52258452D01*
X277897619Y-52258452D01*
X278897619Y-52925119D02*
X278897619Y-53020357D01*
X278850000Y-53115595D01*
X278802380Y-53163214D01*
X278707142Y-53210833D01*
X278516666Y-53258452D01*
X278278571Y-53258452D01*
X278088095Y-53210833D01*
X277992857Y-53163214D01*
X277945238Y-53115595D01*
X277897619Y-53020357D01*
X277897619Y-52925119D01*
X277945238Y-52829880D01*
X277992857Y-52782261D01*
X278088095Y-52734642D01*
X278278571Y-52687023D01*
X278516666Y-52687023D01*
X278707142Y-52734642D01*
X278802380Y-52782261D01*
X278850000Y-52829880D01*
X278897619Y-52925119D01*
X97888928Y-89543571D02*
X98031785Y-89591190D01*
X98079404Y-89638809D01*
X98127023Y-89734047D01*
X98127023Y-89876904D01*
X98079404Y-89972142D01*
X98031785Y-90019761D01*
X97936547Y-90067380D01*
X97555595Y-90067380D01*
X97555595Y-89067380D01*
X97888928Y-89067380D01*
X97984166Y-89115000D01*
X98031785Y-89162619D01*
X98079404Y-89257857D01*
X98079404Y-89353095D01*
X98031785Y-89448333D01*
X97984166Y-89495952D01*
X97888928Y-89543571D01*
X97555595Y-89543571D01*
X98460357Y-89400714D02*
X98698452Y-90067380D01*
X98936547Y-89400714D02*
X98698452Y-90067380D01*
X98603214Y-90305476D01*
X98555595Y-90353095D01*
X98460357Y-90400714D01*
X99317500Y-89686428D02*
X100079404Y-89686428D01*
X100412738Y-89067380D02*
X100984166Y-89067380D01*
X100698452Y-90067380D02*
X100698452Y-89067380D01*
X101317500Y-90067380D02*
X101317500Y-89067380D01*
X101317500Y-89543571D02*
X101888928Y-89543571D01*
X101888928Y-90067380D02*
X101888928Y-89067380D01*
X102365119Y-89543571D02*
X102698452Y-89543571D01*
X102841309Y-90067380D02*
X102365119Y-90067380D01*
X102365119Y-89067380D01*
X102841309Y-89067380D01*
X104031785Y-89543571D02*
X104365119Y-89543571D01*
X104507976Y-90067380D02*
X104031785Y-90067380D01*
X104031785Y-89067380D01*
X104507976Y-89067380D01*
X104936547Y-90067380D02*
X104936547Y-89067380D01*
X105269880Y-89781666D01*
X105603214Y-89067380D01*
X105603214Y-90067380D01*
X106079404Y-90067380D02*
X106079404Y-89067380D01*
X106460357Y-89067380D01*
X106555595Y-89115000D01*
X106603214Y-89162619D01*
X106650833Y-89257857D01*
X106650833Y-89400714D01*
X106603214Y-89495952D01*
X106555595Y-89543571D01*
X106460357Y-89591190D01*
X106079404Y-89591190D01*
X107079404Y-89543571D02*
X107412738Y-89543571D01*
X107555595Y-90067380D02*
X107079404Y-90067380D01*
X107079404Y-89067380D01*
X107555595Y-89067380D01*
X108555595Y-90067380D02*
X108222261Y-89591190D01*
X107984166Y-90067380D02*
X107984166Y-89067380D01*
X108365119Y-89067380D01*
X108460357Y-89115000D01*
X108507976Y-89162619D01*
X108555595Y-89257857D01*
X108555595Y-89400714D01*
X108507976Y-89495952D01*
X108460357Y-89543571D01*
X108365119Y-89591190D01*
X107984166Y-89591190D01*
X109174642Y-89067380D02*
X109365119Y-89067380D01*
X109460357Y-89115000D01*
X109555595Y-89210238D01*
X109603214Y-89400714D01*
X109603214Y-89734047D01*
X109555595Y-89924523D01*
X109460357Y-90019761D01*
X109365119Y-90067380D01*
X109174642Y-90067380D01*
X109079404Y-90019761D01*
X108984166Y-89924523D01*
X108936547Y-89734047D01*
X108936547Y-89400714D01*
X108984166Y-89210238D01*
X109079404Y-89115000D01*
X109174642Y-89067380D01*
X110603214Y-90067380D02*
X110269880Y-89591190D01*
X110031785Y-90067380D02*
X110031785Y-89067380D01*
X110412738Y-89067380D01*
X110507976Y-89115000D01*
X110555595Y-89162619D01*
X110603214Y-89257857D01*
X110603214Y-89400714D01*
X110555595Y-89495952D01*
X110507976Y-89543571D01*
X110412738Y-89591190D01*
X110031785Y-89591190D01*
X110984166Y-89400714D02*
X111698452Y-89400714D01*
X111269880Y-88972142D02*
X110984166Y-90257857D01*
X111603214Y-89829285D02*
X110888928Y-89829285D01*
X111317500Y-90257857D02*
X111603214Y-88972142D01*
X111936547Y-89067380D02*
X112603214Y-89067380D01*
X112174642Y-90067380D01*
X113031785Y-90067380D02*
X113222261Y-90067380D01*
X113317500Y-90019761D01*
X113365119Y-89972142D01*
X113460357Y-89829285D01*
X113507976Y-89638809D01*
X113507976Y-89257857D01*
X113460357Y-89162619D01*
X113412738Y-89115000D01*
X113317500Y-89067380D01*
X113127023Y-89067380D01*
X113031785Y-89115000D01*
X112984166Y-89162619D01*
X112936547Y-89257857D01*
X112936547Y-89495952D01*
X112984166Y-89591190D01*
X113031785Y-89638809D01*
X113127023Y-89686428D01*
X113317500Y-89686428D01*
X113412738Y-89638809D01*
X113460357Y-89591190D01*
X113507976Y-89495952D01*
X114079404Y-89495952D02*
X113984166Y-89448333D01*
X113936547Y-89400714D01*
X113888928Y-89305476D01*
X113888928Y-89257857D01*
X113936547Y-89162619D01*
X113984166Y-89115000D01*
X114079404Y-89067380D01*
X114269880Y-89067380D01*
X114365119Y-89115000D01*
X114412738Y-89162619D01*
X114460357Y-89257857D01*
X114460357Y-89305476D01*
X114412738Y-89400714D01*
X114365119Y-89448333D01*
X114269880Y-89495952D01*
X114079404Y-89495952D01*
X113984166Y-89543571D01*
X113936547Y-89591190D01*
X113888928Y-89686428D01*
X113888928Y-89876904D01*
X113936547Y-89972142D01*
X113984166Y-90019761D01*
X114079404Y-90067380D01*
X114269880Y-90067380D01*
X114365119Y-90019761D01*
X114412738Y-89972142D01*
X114460357Y-89876904D01*
X114460357Y-89686428D01*
X114412738Y-89591190D01*
X114365119Y-89543571D01*
X114269880Y-89495952D01*
X115317500Y-89400714D02*
X115317500Y-90067380D01*
X115079404Y-89019761D02*
X114841309Y-89734047D01*
X115460357Y-89734047D01*
D12*
%TO.C,G\u002A\u002A\u002A*%
X108508000Y-127892571D02*
X108435428Y-128037714D01*
X108435428Y-128255428D01*
X108508000Y-128473142D01*
X108653142Y-128618285D01*
X108798285Y-128690857D01*
X109088571Y-128763428D01*
X109306285Y-128763428D01*
X109596571Y-128690857D01*
X109741714Y-128618285D01*
X109886857Y-128473142D01*
X109959428Y-128255428D01*
X109959428Y-128110285D01*
X109886857Y-127892571D01*
X109814285Y-127820000D01*
X109306285Y-127820000D01*
X109306285Y-128110285D01*
X108435428Y-126949142D02*
X108798285Y-126949142D01*
X108653142Y-127312000D02*
X108798285Y-126949142D01*
X108653142Y-126586285D01*
X109088571Y-127166857D02*
X108798285Y-126949142D01*
X109088571Y-126731428D01*
X108435428Y-125788000D02*
X108798285Y-125788000D01*
X108653142Y-126150857D02*
X108798285Y-125788000D01*
X108653142Y-125425142D01*
X109088571Y-126005714D02*
X108798285Y-125788000D01*
X109088571Y-125570285D01*
X108435428Y-124626857D02*
X108798285Y-124626857D01*
X108653142Y-124989714D02*
X108798285Y-124626857D01*
X108653142Y-124264000D01*
X109088571Y-124844571D02*
X108798285Y-124626857D01*
X109088571Y-124409142D01*
D11*
%TO.C,*%
D12*
%TO.C,G\u002A\u002A\u002A*%
X123507428Y-109458000D02*
X123362285Y-109385428D01*
X123144571Y-109385428D01*
X122926857Y-109458000D01*
X122781714Y-109603142D01*
X122709142Y-109748285D01*
X122636571Y-110038571D01*
X122636571Y-110256285D01*
X122709142Y-110546571D01*
X122781714Y-110691714D01*
X122926857Y-110836857D01*
X123144571Y-110909428D01*
X123289714Y-110909428D01*
X123507428Y-110836857D01*
X123580000Y-110764285D01*
X123580000Y-110256285D01*
X123289714Y-110256285D01*
X124450857Y-109385428D02*
X124450857Y-109748285D01*
X124088000Y-109603142D02*
X124450857Y-109748285D01*
X124813714Y-109603142D01*
X124233142Y-110038571D02*
X124450857Y-109748285D01*
X124668571Y-110038571D01*
X125612000Y-109385428D02*
X125612000Y-109748285D01*
X125249142Y-109603142D02*
X125612000Y-109748285D01*
X125974857Y-109603142D01*
X125394285Y-110038571D02*
X125612000Y-109748285D01*
X125829714Y-110038571D01*
X126773142Y-109385428D02*
X126773142Y-109748285D01*
X126410285Y-109603142D02*
X126773142Y-109748285D01*
X127136000Y-109603142D01*
X126555428Y-110038571D02*
X126773142Y-109748285D01*
X126990857Y-110038571D01*
%TD*%
M02*
