%TF.GenerationSoftware,KiCad,Pcbnew,(6.0.6)*%
%TF.CreationDate,2023-05-08T18:28:51+05:30*%
%TF.ProjectId,new_stuff,6e65775f-7374-4756-9666-2e6b69636164,rev?*%
%TF.SameCoordinates,Original*%
%TF.FileFunction,Soldermask,Bot*%
%TF.FilePolarity,Negative*%
%FSLAX46Y46*%
G04 Gerber Fmt 4.6, Leading zero omitted, Abs format (unit mm)*
G04 Created by KiCad (PCBNEW (6.0.6)) date 2023-05-08 18:28:51*
%MOMM*%
%LPD*%
G01*
G04 APERTURE LIST*
G04 Aperture macros list*
%AMRoundRect*
0 Rectangle with rounded corners*
0 $1 Rounding radius*
0 $2 $3 $4 $5 $6 $7 $8 $9 X,Y pos of 4 corners*
0 Add a 4 corners polygon primitive as box body*
4,1,4,$2,$3,$4,$5,$6,$7,$8,$9,$2,$3,0*
0 Add four circle primitives for the rounded corners*
1,1,$1+$1,$2,$3*
1,1,$1+$1,$4,$5*
1,1,$1+$1,$6,$7*
1,1,$1+$1,$8,$9*
0 Add four rect primitives between the rounded corners*
20,1,$1+$1,$2,$3,$4,$5,0*
20,1,$1+$1,$4,$5,$6,$7,0*
20,1,$1+$1,$6,$7,$8,$9,0*
20,1,$1+$1,$8,$9,$2,$3,0*%
G04 Aperture macros list end*
%ADD10C,3.987800*%
%ADD11C,3.000000*%
%ADD12C,1.750000*%
%ADD13R,2.550000X2.500000*%
%ADD14R,2.550000X2.000000*%
%ADD15C,3.048000*%
%ADD16R,2.550000X1.500000*%
%ADD17R,2.550000X1.300000*%
%ADD18O,5.100000X2.800000*%
%ADD19C,5.500000*%
%ADD20R,1.350000X1.350000*%
%ADD21O,1.350000X1.350000*%
%ADD22O,5.500000X3.000000*%
%ADD23RoundRect,0.150000X-0.625000X0.150000X-0.625000X-0.150000X0.625000X-0.150000X0.625000X0.150000X0*%
%ADD24RoundRect,0.250000X-0.650000X0.350000X-0.650000X-0.350000X0.650000X-0.350000X0.650000X0.350000X0*%
%ADD25R,1.200000X0.900000*%
%ADD26RoundRect,0.225000X-0.250000X0.225000X-0.250000X-0.225000X0.250000X-0.225000X0.250000X0.225000X0*%
%ADD27RoundRect,0.225000X-0.225000X-0.250000X0.225000X-0.250000X0.225000X0.250000X-0.225000X0.250000X0*%
%ADD28RoundRect,0.200000X0.200000X0.275000X-0.200000X0.275000X-0.200000X-0.275000X0.200000X-0.275000X0*%
%ADD29RoundRect,0.200000X-0.200000X-0.275000X0.200000X-0.275000X0.200000X0.275000X-0.200000X0.275000X0*%
%ADD30RoundRect,0.225000X0.225000X0.250000X-0.225000X0.250000X-0.225000X-0.250000X0.225000X-0.250000X0*%
%ADD31C,0.650000*%
%ADD32R,0.600000X1.450000*%
%ADD33R,0.300000X1.450000*%
%ADD34O,1.000000X2.100000*%
%ADD35O,1.000000X1.600000*%
%ADD36RoundRect,0.200000X0.275000X-0.200000X0.275000X0.200000X-0.275000X0.200000X-0.275000X-0.200000X0*%
%ADD37RoundRect,0.200000X-0.275000X0.200000X-0.275000X-0.200000X0.275000X-0.200000X0.275000X0.200000X0*%
%ADD38RoundRect,0.250000X-0.450000X0.325000X-0.450000X-0.325000X0.450000X-0.325000X0.450000X0.325000X0*%
%ADD39RoundRect,0.218750X0.256250X-0.218750X0.256250X0.218750X-0.256250X0.218750X-0.256250X-0.218750X0*%
%ADD40R,2.000000X1.500000*%
%ADD41R,2.000000X3.800000*%
%ADD42R,1.700000X1.000000*%
%ADD43RoundRect,0.150000X-0.150000X0.512500X-0.150000X-0.512500X0.150000X-0.512500X0.150000X0.512500X0*%
%ADD44R,1.400000X1.000000*%
%ADD45RoundRect,0.225000X0.250000X-0.225000X0.250000X0.225000X-0.250000X0.225000X-0.250000X-0.225000X0*%
%ADD46RoundRect,0.150000X-0.650000X-0.150000X0.650000X-0.150000X0.650000X0.150000X-0.650000X0.150000X0*%
%ADD47R,1.200000X1.400000*%
%ADD48RoundRect,0.050000X-0.050000X0.387500X-0.050000X-0.387500X0.050000X-0.387500X0.050000X0.387500X0*%
%ADD49RoundRect,0.050000X-0.387500X0.050000X-0.387500X-0.050000X0.387500X-0.050000X0.387500X0.050000X0*%
%ADD50RoundRect,0.144000X-1.456000X1.456000X-1.456000X-1.456000X1.456000X-1.456000X1.456000X1.456000X0*%
G04 APERTURE END LIST*
%TO.C,G\u002A\u002A\u002A*%
G36*
X96213492Y-83762868D02*
G01*
X96237376Y-83775759D01*
X96275580Y-83826192D01*
X96304342Y-83926891D01*
X96324963Y-84097700D01*
X96338740Y-84358463D01*
X96346973Y-84729021D01*
X96350960Y-85229218D01*
X96352000Y-85878898D01*
X96350839Y-86296167D01*
X96345659Y-86832386D01*
X96336906Y-87294510D01*
X96325216Y-87658730D01*
X96311221Y-87901237D01*
X96295556Y-87998222D01*
X96219595Y-88040823D01*
X96031722Y-88041717D01*
X95860934Y-87953067D01*
X95814135Y-87848540D01*
X95774186Y-87604592D01*
X95759334Y-87275733D01*
X95759323Y-87266183D01*
X95748364Y-86980597D01*
X95720739Y-86777389D01*
X95682265Y-86700000D01*
X95630354Y-86733836D01*
X95486264Y-86874813D01*
X95281080Y-87100156D01*
X95040668Y-87382357D01*
X95037286Y-87386443D01*
X94758791Y-87710886D01*
X94555913Y-87915327D01*
X94407459Y-88018346D01*
X94292237Y-88038524D01*
X94172699Y-88004041D01*
X94077695Y-87881887D01*
X94113334Y-87674023D01*
X94281107Y-87375000D01*
X94582509Y-86979367D01*
X94742220Y-86784081D01*
X94922883Y-86548550D01*
X95013354Y-86397432D01*
X95027718Y-86304687D01*
X94980057Y-86244275D01*
X94896778Y-86185199D01*
X94694801Y-86042988D01*
X94451307Y-85872297D01*
X94232413Y-85703665D01*
X94104383Y-85550005D01*
X94081567Y-85406631D01*
X94103032Y-85320611D01*
X94212428Y-85208729D01*
X94412477Y-85216138D01*
X94711469Y-85344343D01*
X95117692Y-85594851D01*
X95754262Y-86024404D01*
X95777964Y-84953099D01*
X95789555Y-84548136D01*
X95808580Y-84210289D01*
X95837174Y-83990625D01*
X95879152Y-83861620D01*
X95938326Y-83795756D01*
X96028211Y-83759188D01*
X96213492Y-83762868D01*
G37*
G36*
X98496657Y-85268989D02*
G01*
X98863451Y-85463783D01*
X99183102Y-85801273D01*
X99195345Y-85818033D01*
X99293468Y-86005074D01*
X99343603Y-86249718D01*
X99357667Y-86606966D01*
X99353234Y-86854947D01*
X99323244Y-87105282D01*
X99249400Y-87298079D01*
X99113902Y-87498441D01*
X99047671Y-87578495D01*
X98822601Y-87792424D01*
X98605902Y-87933036D01*
X98577740Y-87944853D01*
X98147024Y-88042474D01*
X97692087Y-88018928D01*
X97287236Y-87877353D01*
X97101385Y-87754072D01*
X96877198Y-87528368D01*
X96764779Y-87299066D01*
X96786353Y-87100635D01*
X96811037Y-87061473D01*
X96955083Y-86964872D01*
X97155044Y-87013021D01*
X97423269Y-87208000D01*
X97501086Y-87270551D01*
X97731824Y-87407418D01*
X97925484Y-87462000D01*
X98241872Y-87404978D01*
X98515012Y-87233035D01*
X98701049Y-86981260D01*
X98789860Y-86685329D01*
X98771323Y-86380912D01*
X98635318Y-86103684D01*
X98371722Y-85889317D01*
X98260883Y-85837673D01*
X97960091Y-85774571D01*
X97673208Y-85853293D01*
X97361152Y-86081260D01*
X97336771Y-86103165D01*
X97126656Y-86272945D01*
X96985316Y-86334307D01*
X96874075Y-86305018D01*
X96871143Y-86303159D01*
X96725297Y-86133986D01*
X96740290Y-85920045D01*
X96915680Y-85668070D01*
X96995425Y-85587168D01*
X97328701Y-85328342D01*
X97680341Y-85204898D01*
X98105027Y-85195088D01*
X98496657Y-85268989D01*
G37*
G36*
X101124159Y-83762868D02*
G01*
X101148043Y-83775759D01*
X101186246Y-83826192D01*
X101215009Y-83926891D01*
X101235630Y-84097700D01*
X101249407Y-84358463D01*
X101257640Y-84729021D01*
X101261627Y-85229218D01*
X101262667Y-85878898D01*
X101261505Y-86296167D01*
X101256325Y-86832386D01*
X101247573Y-87294510D01*
X101235882Y-87658730D01*
X101221887Y-87901237D01*
X101206223Y-87998222D01*
X101113629Y-88045851D01*
X100924456Y-88036723D01*
X100763448Y-87938246D01*
X100756199Y-87927113D01*
X100723951Y-87794151D01*
X100701497Y-87529511D01*
X100688505Y-87123832D01*
X100684643Y-86567752D01*
X100689581Y-85851912D01*
X100690524Y-85771468D01*
X100699321Y-85151667D01*
X100710091Y-84678447D01*
X100724419Y-84331374D01*
X100743888Y-84090013D01*
X100770084Y-83933930D01*
X100804591Y-83842690D01*
X100848992Y-83795858D01*
X100938924Y-83759226D01*
X101124159Y-83762868D01*
G37*
G36*
X86098678Y-86658658D02*
G01*
X86069085Y-87066938D01*
X86010175Y-87365540D01*
X85913599Y-87583012D01*
X85771008Y-87747903D01*
X85574057Y-87888761D01*
X85424196Y-87965129D01*
X85023940Y-88052721D01*
X84621721Y-88001177D01*
X84261501Y-87820674D01*
X83987239Y-87521389D01*
X83959386Y-87473216D01*
X83899798Y-87335467D01*
X83860027Y-87160474D01*
X83836277Y-86915229D01*
X83824751Y-86566727D01*
X83821650Y-86081962D01*
X83821708Y-86065000D01*
X84414000Y-86065000D01*
X84414300Y-86250323D01*
X84419459Y-86644115D01*
X84434487Y-86912950D01*
X84463840Y-87089124D01*
X84511970Y-87204931D01*
X84583334Y-87292667D01*
X84745329Y-87403113D01*
X84964334Y-87462000D01*
X85143631Y-87420761D01*
X85345334Y-87292667D01*
X85374938Y-87261192D01*
X85437119Y-87166766D01*
X85477728Y-87032230D01*
X85501219Y-86825286D01*
X85512048Y-86513641D01*
X85514667Y-86065000D01*
X85514368Y-85879677D01*
X85509209Y-85485885D01*
X85494180Y-85217050D01*
X85464828Y-85040876D01*
X85416697Y-84925069D01*
X85345334Y-84837333D01*
X85183338Y-84726887D01*
X84964334Y-84668000D01*
X84785037Y-84709239D01*
X84583334Y-84837333D01*
X84553730Y-84868808D01*
X84491549Y-84963233D01*
X84450940Y-85097770D01*
X84427448Y-85304713D01*
X84416620Y-85616358D01*
X84414000Y-86065000D01*
X83821708Y-86065000D01*
X83822467Y-85842623D01*
X83832392Y-85381369D01*
X83855639Y-85049255D01*
X83894795Y-84818183D01*
X83952444Y-84660051D01*
X84103024Y-84447046D01*
X84416640Y-84214304D01*
X84796299Y-84094688D01*
X85197078Y-84099799D01*
X85574057Y-84241239D01*
X85590828Y-84251560D01*
X85783431Y-84393227D01*
X85922297Y-84561058D01*
X86015772Y-84783602D01*
X86072205Y-85089408D01*
X86099943Y-85507024D01*
X86107334Y-86065000D01*
X86107300Y-86112150D01*
X86098678Y-86658658D01*
G37*
G36*
X89923117Y-85245725D02*
G01*
X90296675Y-85451604D01*
X90629216Y-85795762D01*
X90667803Y-85851867D01*
X90739529Y-86001983D01*
X90786580Y-86204128D01*
X90816118Y-86497394D01*
X90835301Y-86920872D01*
X90841794Y-87192395D01*
X90842520Y-87538082D01*
X90833930Y-87798195D01*
X90816792Y-87930943D01*
X90708433Y-88032428D01*
X90529163Y-88043487D01*
X90357600Y-87953067D01*
X90305028Y-87820843D01*
X90268861Y-87544062D01*
X90256000Y-87154245D01*
X90246458Y-86734900D01*
X90205606Y-86394110D01*
X90120987Y-86160385D01*
X89980261Y-86001427D01*
X89771091Y-85884941D01*
X89620730Y-85820015D01*
X89385642Y-85709987D01*
X89258990Y-85624759D01*
X89207443Y-85537347D01*
X89197667Y-85420772D01*
X89219834Y-85289262D01*
X89318120Y-85223004D01*
X89539091Y-85193198D01*
X89923117Y-85245725D01*
G37*
G36*
X93834144Y-86980453D02*
G01*
X93739471Y-87325962D01*
X93543459Y-87603524D01*
X93220195Y-87864167D01*
X92901161Y-88003652D01*
X92489952Y-88060158D01*
X92071974Y-88021367D01*
X91716500Y-87886261D01*
X91658742Y-87848131D01*
X91479311Y-87656803D01*
X91442917Y-87475059D01*
X91530639Y-87338674D01*
X91723553Y-87283423D01*
X92002739Y-87345083D01*
X92005462Y-87346215D01*
X92274099Y-87428028D01*
X92527863Y-87462000D01*
X92539465Y-87461795D01*
X92749272Y-87412037D01*
X92971469Y-87299713D01*
X93147630Y-87161112D01*
X93219334Y-87032521D01*
X93157668Y-87004472D01*
X92956974Y-86977927D01*
X92649022Y-86959748D01*
X92266834Y-86952703D01*
X91932003Y-86947682D01*
X91583508Y-86931526D01*
X91325145Y-86906959D01*
X91196503Y-86876791D01*
X91134645Y-86779062D01*
X91111424Y-86559697D01*
X91141501Y-86283424D01*
X91143752Y-86275238D01*
X91745245Y-86275238D01*
X91769941Y-86323128D01*
X91878983Y-86348896D01*
X92100699Y-86359360D01*
X92463413Y-86361333D01*
X92671033Y-86360520D01*
X92961035Y-86352280D01*
X93124663Y-86330846D01*
X93190233Y-86290971D01*
X93186059Y-86227408D01*
X93160929Y-86157648D01*
X93134667Y-86060249D01*
X93125290Y-86039564D01*
X93011699Y-85959921D01*
X92818017Y-85870946D01*
X92606160Y-85798556D01*
X92438044Y-85768667D01*
X92242616Y-85807045D01*
X91974521Y-85963585D01*
X91777677Y-86196342D01*
X91776571Y-86198412D01*
X91745245Y-86275238D01*
X91143752Y-86275238D01*
X91217984Y-86005245D01*
X91333975Y-85780161D01*
X91636285Y-85467672D01*
X92039550Y-85244863D01*
X92474971Y-85166497D01*
X92912852Y-85232372D01*
X93323499Y-85442287D01*
X93677216Y-85796042D01*
X93698631Y-85826035D01*
X93793109Y-86013556D01*
X93841021Y-86258208D01*
X93842242Y-86290971D01*
X93854334Y-86615333D01*
X93834144Y-86980453D01*
G37*
G36*
X100228936Y-84166532D02*
G01*
X100317575Y-84319758D01*
X100310274Y-84462554D01*
X100232908Y-84593628D01*
X100200614Y-84612005D01*
X100004150Y-84647729D01*
X99840817Y-84577606D01*
X99756014Y-84436365D01*
X99795138Y-84258736D01*
X99884964Y-84165868D01*
X100063051Y-84112703D01*
X100228936Y-84166532D01*
G37*
G36*
X100192826Y-85202201D02*
G01*
X100240825Y-85235756D01*
X100279930Y-85317657D01*
X100306088Y-85470230D01*
X100321744Y-85718134D01*
X100329344Y-86086026D01*
X100331334Y-86598565D01*
X100330059Y-86883519D01*
X100322905Y-87310928D01*
X100310517Y-87659231D01*
X100294108Y-87898353D01*
X100274889Y-87998222D01*
X100182045Y-88045958D01*
X99992761Y-88036502D01*
X99831382Y-87937364D01*
X99794432Y-87835063D01*
X99765374Y-87572647D01*
X99753171Y-87153067D01*
X99757515Y-86570627D01*
X99761827Y-86360730D01*
X99775369Y-85919120D01*
X99794650Y-85611388D01*
X99822742Y-85411901D01*
X99862721Y-85295023D01*
X99917659Y-85235122D01*
X100007559Y-85198533D01*
X100192826Y-85202201D01*
G37*
G36*
X89095784Y-87210264D02*
G01*
X88856778Y-87581739D01*
X88513982Y-87862774D01*
X88490306Y-87875952D01*
X88049757Y-88028606D01*
X87598328Y-88033193D01*
X87172023Y-87900572D01*
X86806845Y-87641599D01*
X86538799Y-87267132D01*
X86401952Y-86893349D01*
X86384601Y-86604428D01*
X86983153Y-86604428D01*
X87052151Y-86909870D01*
X87211332Y-87186768D01*
X87427731Y-87365602D01*
X87648762Y-87438400D01*
X88000015Y-87434137D01*
X88300177Y-87278587D01*
X88521740Y-86981412D01*
X88612450Y-86659500D01*
X88559059Y-86317775D01*
X88341836Y-86014057D01*
X88305144Y-85981750D01*
X88010360Y-85833967D01*
X87688636Y-85821269D01*
X87383276Y-85929553D01*
X87137585Y-86144718D01*
X86994870Y-86452664D01*
X86983153Y-86604428D01*
X86384601Y-86604428D01*
X86375710Y-86456373D01*
X86513861Y-86042336D01*
X86818833Y-85637108D01*
X86838167Y-85617153D01*
X87168018Y-85343354D01*
X87485440Y-85216005D01*
X87805214Y-85156302D01*
X87591274Y-84791241D01*
X87521330Y-84665115D01*
X87417984Y-84444575D01*
X87377334Y-84303457D01*
X87420442Y-84167117D01*
X87565117Y-84047051D01*
X87742710Y-84038720D01*
X87761672Y-84051033D01*
X87873012Y-84176162D01*
X88042983Y-84406476D01*
X88251187Y-84710325D01*
X88477225Y-85056058D01*
X88700697Y-85412027D01*
X88901204Y-85746581D01*
X89058347Y-86028070D01*
X89151727Y-86224845D01*
X89195131Y-86368817D01*
X89208227Y-86659500D01*
X89214176Y-86791555D01*
X89095784Y-87210264D01*
G37*
G36*
X103683272Y-84090753D02*
G01*
X104184393Y-84233235D01*
X104328870Y-84311107D01*
X104679571Y-84587209D01*
X104992342Y-84941951D01*
X105210259Y-85315290D01*
X105297536Y-85661356D01*
X105320873Y-86099575D01*
X105277289Y-86542020D01*
X105168765Y-86912393D01*
X105088030Y-87061044D01*
X104815851Y-87406094D01*
X104468313Y-87716551D01*
X104105581Y-87934573D01*
X103893520Y-88004674D01*
X103424909Y-88054320D01*
X102926790Y-87996226D01*
X102462257Y-87834247D01*
X102263251Y-87722055D01*
X101970729Y-87501873D01*
X101755795Y-87269121D01*
X101643172Y-87053031D01*
X101657583Y-86882832D01*
X101690430Y-86836481D01*
X101867165Y-86727219D01*
X102087123Y-86777793D01*
X102343162Y-86987119D01*
X102487752Y-87122671D01*
X102893247Y-87360146D01*
X103334081Y-87447864D01*
X103778767Y-87382853D01*
X104195820Y-87162137D01*
X104423401Y-86942547D01*
X104643708Y-86558257D01*
X104729942Y-86131732D01*
X104682268Y-85699123D01*
X104500849Y-85296581D01*
X104185848Y-84960257D01*
X104069271Y-84878539D01*
X103647574Y-84696932D01*
X103216420Y-84683094D01*
X102781330Y-84836435D01*
X102347825Y-85156366D01*
X102212300Y-85280088D01*
X102018821Y-85432845D01*
X101887810Y-85486686D01*
X101785993Y-85459569D01*
X101764646Y-85445390D01*
X101636593Y-85269028D01*
X101665261Y-85033364D01*
X101850327Y-84741992D01*
X102169849Y-84448696D01*
X102632843Y-84207890D01*
X103151703Y-84085440D01*
X103683272Y-84090753D01*
G37*
G36*
X279813266Y-38402418D02*
G01*
X280000881Y-38450674D01*
X280156627Y-38560053D01*
X280254607Y-38791086D01*
X280314369Y-39131736D01*
X280334718Y-39525920D01*
X280315593Y-39919096D01*
X280256938Y-40256725D01*
X280158693Y-40484267D01*
X280132119Y-40516056D01*
X279910924Y-40656270D01*
X279656624Y-40671897D01*
X279435044Y-40556377D01*
X279343567Y-40451899D01*
X279307014Y-40342741D01*
X279323984Y-40177645D01*
X279390860Y-39903138D01*
X279435753Y-39706014D01*
X279505120Y-39290877D01*
X279544216Y-38901931D01*
X279548595Y-38819926D01*
X279568209Y-38570442D01*
X279605217Y-38443023D01*
X279680082Y-38399678D01*
X279813266Y-38402418D01*
G37*
G36*
X280815233Y-29500482D02*
G01*
X281072967Y-29588155D01*
X281293427Y-29754788D01*
X281526747Y-30015985D01*
X281835628Y-30504784D01*
X282052885Y-31041551D01*
X282088826Y-31150602D01*
X282163425Y-31306286D01*
X282220508Y-31337884D01*
X282224585Y-31332980D01*
X282281727Y-31195135D01*
X282346386Y-30950065D01*
X282406948Y-30653975D01*
X282451801Y-30363070D01*
X282469333Y-30133557D01*
X282469497Y-30121250D01*
X282540599Y-29909845D01*
X282709870Y-29798615D01*
X282931871Y-29800920D01*
X283161166Y-29930122D01*
X283165945Y-29934570D01*
X283270905Y-30139318D01*
X283305106Y-30458845D01*
X283271525Y-30856763D01*
X283173141Y-31296684D01*
X283012928Y-31742217D01*
X282940340Y-31879638D01*
X282693195Y-32142610D01*
X282384986Y-32282796D01*
X282054455Y-32295663D01*
X281740345Y-32176682D01*
X281481397Y-31921321D01*
X281428476Y-31833223D01*
X281294309Y-31568286D01*
X281138682Y-31222766D01*
X280985563Y-30848518D01*
X280926745Y-30699371D01*
X280760577Y-30320156D01*
X280624722Y-30094159D01*
X280509841Y-30013214D01*
X280406597Y-30069153D01*
X280305653Y-30253808D01*
X280192048Y-30671015D01*
X280194549Y-31086942D01*
X280309579Y-31452426D01*
X280526605Y-31734699D01*
X280835096Y-31900999D01*
X280886466Y-31914881D01*
X281122718Y-31969816D01*
X281284000Y-31993861D01*
X281360233Y-32010186D01*
X281330745Y-32055307D01*
X281205139Y-32115080D01*
X281020617Y-32175507D01*
X280814379Y-32222590D01*
X280623629Y-32242333D01*
X280226888Y-32193773D01*
X279865532Y-32018606D01*
X279518568Y-31696379D01*
X279422442Y-31581320D01*
X279312275Y-31399826D01*
X279263199Y-31191075D01*
X279252000Y-30884347D01*
X279303183Y-30370041D01*
X279465157Y-29949804D01*
X279734400Y-29657168D01*
X280107253Y-29496030D01*
X280580056Y-29470285D01*
X280815233Y-29500482D01*
G37*
G36*
X280234028Y-53872217D02*
G01*
X280147856Y-53908907D01*
X280072109Y-53963885D01*
X279872617Y-54000580D01*
X279630390Y-53985236D01*
X279415856Y-53917068D01*
X279376644Y-53895334D01*
X279302209Y-53826981D01*
X279307380Y-53719151D01*
X279388252Y-53514902D01*
X279413930Y-53454942D01*
X279564623Y-53082670D01*
X280452184Y-53082670D01*
X280755714Y-53056835D01*
X280908736Y-53035118D01*
X281052455Y-52955051D01*
X281133235Y-52777000D01*
X281208339Y-52548742D01*
X281412931Y-52110079D01*
X281655249Y-51786104D01*
X281917034Y-51604137D01*
X281976611Y-51587299D01*
X282025162Y-51610980D01*
X282045506Y-51713680D01*
X282042222Y-51925299D01*
X282019888Y-52275733D01*
X282018531Y-52294982D01*
X281996079Y-52638934D01*
X281992399Y-52846226D01*
X282013623Y-52947689D01*
X282065886Y-52974155D01*
X282155322Y-52956452D01*
X282279660Y-52925850D01*
X282396246Y-52905156D01*
X282396793Y-52905116D01*
X282438612Y-52825503D01*
X282495941Y-52622819D01*
X282556540Y-52340207D01*
X282614379Y-52081258D01*
X282733837Y-51760879D01*
X282903115Y-51525072D01*
X282957624Y-51464702D01*
X283073430Y-51301008D01*
X283097658Y-51199866D01*
X283089023Y-51192463D01*
X282958466Y-51163303D01*
X282709199Y-51142371D01*
X282382641Y-51130138D01*
X282020213Y-51127073D01*
X281663337Y-51133645D01*
X281353434Y-51150325D01*
X281131923Y-51177582D01*
X281033035Y-51201385D01*
X280921302Y-51267235D01*
X280859104Y-51405513D01*
X280815075Y-51664415D01*
X280784414Y-51849981D01*
X280702044Y-52230081D01*
X280604161Y-52591168D01*
X280452184Y-53082670D01*
X279564623Y-53082670D01*
X279574817Y-53057488D01*
X279740815Y-52617008D01*
X279894218Y-52183276D01*
X280017324Y-51806064D01*
X280092428Y-51535145D01*
X280170226Y-51188893D01*
X279698945Y-51244283D01*
X279561979Y-51259386D01*
X279364764Y-51270495D01*
X279294551Y-51246806D01*
X279323764Y-51183879D01*
X279367645Y-51115519D01*
X279373909Y-51022131D01*
X279377332Y-50990616D01*
X279469573Y-50874979D01*
X279643489Y-50716085D01*
X279713369Y-50660633D01*
X279929959Y-50527637D01*
X280182189Y-50448346D01*
X280536846Y-50399057D01*
X280549580Y-50397790D01*
X280834562Y-50362129D01*
X281036859Y-50323326D01*
X281113405Y-50289560D01*
X281089555Y-50266854D01*
X280942934Y-50187161D01*
X280692423Y-50071469D01*
X280372572Y-49936257D01*
X280168872Y-49852096D01*
X279888829Y-49725142D01*
X279721993Y-49623299D01*
X279638047Y-49525813D01*
X279606677Y-49411931D01*
X279605950Y-49306774D01*
X279651265Y-49200302D01*
X279768222Y-49100809D01*
X279979526Y-48994615D01*
X280307884Y-48868040D01*
X280776000Y-48707403D01*
X281495666Y-48467021D01*
X280903000Y-48356849D01*
X280687470Y-48313786D01*
X280253183Y-48209543D01*
X279861562Y-48093980D01*
X279543537Y-47977786D01*
X279330039Y-47871652D01*
X279252000Y-47786266D01*
X279267569Y-47748929D01*
X279395993Y-47645891D01*
X279611833Y-47543648D01*
X279711490Y-47509305D01*
X279950232Y-47457753D01*
X280227538Y-47451236D01*
X280606666Y-47486094D01*
X281062157Y-47532410D01*
X281511121Y-47560778D01*
X281896928Y-47567819D01*
X282193331Y-47553852D01*
X282374085Y-47519195D01*
X282412943Y-47464166D01*
X282384710Y-47397233D01*
X282370935Y-47210166D01*
X282374086Y-47183040D01*
X282345068Y-47106703D01*
X282221662Y-47070903D01*
X281966655Y-47062000D01*
X281722528Y-47073758D01*
X281568270Y-47123697D01*
X281571752Y-47218064D01*
X281728500Y-47362505D01*
X281802220Y-47418247D01*
X281849431Y-47472999D01*
X281772580Y-47482565D01*
X281549719Y-47458762D01*
X281273738Y-47392428D01*
X280952420Y-47195789D01*
X280855070Y-47109678D01*
X280731712Y-47037854D01*
X280567473Y-46998043D01*
X280319552Y-46980963D01*
X279945150Y-46977333D01*
X279596911Y-46975426D01*
X279367778Y-46965326D01*
X279254047Y-46940792D01*
X279228017Y-46895585D01*
X279261989Y-46823467D01*
X279277202Y-46800152D01*
X279533286Y-46547824D01*
X279878184Y-46368339D01*
X280240313Y-46300000D01*
X280583148Y-46300000D01*
X280590825Y-46215333D01*
X281368666Y-46215333D01*
X282493023Y-46215333D01*
X282446931Y-45770833D01*
X282442167Y-45727096D01*
X282359300Y-45280546D01*
X282235541Y-44979625D01*
X282080634Y-44829039D01*
X281904320Y-44833492D01*
X281716341Y-44997689D01*
X281526441Y-45326333D01*
X281498911Y-45391212D01*
X281408102Y-45683100D01*
X281370526Y-45940166D01*
X281368666Y-46215333D01*
X280590825Y-46215333D01*
X280628709Y-45797540D01*
X280647482Y-45643550D01*
X280781396Y-45149027D01*
X281008767Y-44749098D01*
X281313147Y-44475533D01*
X281580333Y-44317319D01*
X280987666Y-44204337D01*
X280672274Y-44143993D01*
X280282812Y-44069020D01*
X279966179Y-44007597D01*
X279537357Y-43923838D01*
X279499459Y-43191694D01*
X279927163Y-43141039D01*
X279949758Y-43138225D01*
X280199570Y-43096466D01*
X280512209Y-43031247D01*
X280849586Y-42952278D01*
X281173608Y-42869268D01*
X281446185Y-42791925D01*
X281629224Y-42729960D01*
X281684635Y-42693080D01*
X281683585Y-42692257D01*
X281585587Y-42658929D01*
X281357835Y-42594448D01*
X281032977Y-42507760D01*
X280643660Y-42407812D01*
X280373937Y-42337860D01*
X279968293Y-42217920D01*
X279693725Y-42105876D01*
X279526720Y-41987657D01*
X279443761Y-41849191D01*
X279421333Y-41676409D01*
X279429286Y-41509842D01*
X279493576Y-41327969D01*
X279652576Y-41241780D01*
X279941961Y-41220000D01*
X280250532Y-41201701D01*
X280688600Y-41142181D01*
X281151828Y-41053567D01*
X281575459Y-40948477D01*
X281894740Y-40839527D01*
X282173000Y-40718628D01*
X282020707Y-40717055D01*
X281852127Y-40715314D01*
X281825464Y-40714685D01*
X281408958Y-40627751D01*
X280998960Y-40417630D01*
X280659650Y-40116550D01*
X280601342Y-40041133D01*
X280451330Y-39710234D01*
X280449352Y-39530690D01*
X281284000Y-39530690D01*
X281314501Y-39642354D01*
X281469944Y-39781264D01*
X281719495Y-39869698D01*
X282020707Y-39904296D01*
X282331131Y-39881698D01*
X282608319Y-39798543D01*
X282809822Y-39651471D01*
X282833632Y-39620559D01*
X282863381Y-39502451D01*
X282765728Y-39357401D01*
X282720200Y-39312332D01*
X282433525Y-39162539D01*
X282067908Y-39132678D01*
X281661348Y-39227228D01*
X281571243Y-39263877D01*
X281353177Y-39393340D01*
X281284000Y-39530690D01*
X280449352Y-39530690D01*
X280447679Y-39378759D01*
X280573439Y-39067444D01*
X280811656Y-38797024D01*
X281145378Y-38588236D01*
X281557654Y-38461814D01*
X282031530Y-38438495D01*
X282271074Y-38447375D01*
X282382303Y-38425413D01*
X282370615Y-38366563D01*
X282332015Y-38276164D01*
X282341044Y-38091396D01*
X282359329Y-38008848D01*
X282324311Y-37948483D01*
X282191315Y-37923147D01*
X281924705Y-37918000D01*
X281729234Y-37924837D01*
X281514991Y-37964995D01*
X281451374Y-38036794D01*
X281547039Y-38135253D01*
X281589804Y-38189638D01*
X281538424Y-38259255D01*
X281405561Y-38300196D01*
X281284000Y-38290658D01*
X281241666Y-38287336D01*
X281098438Y-38222582D01*
X280903000Y-38085861D01*
X280875040Y-38063151D01*
X280707320Y-37983921D01*
X280441357Y-37933599D01*
X280041900Y-37904770D01*
X279943669Y-37899909D01*
X279629151Y-37875183D01*
X279394146Y-37842789D01*
X279283543Y-37808431D01*
X279277896Y-37756473D01*
X279362537Y-37631580D01*
X279520665Y-37485364D01*
X279708380Y-37356370D01*
X279881784Y-37283146D01*
X280025217Y-37256578D01*
X280268000Y-37222036D01*
X280342128Y-37209001D01*
X280416228Y-37156000D01*
X281284000Y-37156000D01*
X282469333Y-37156000D01*
X282469333Y-36854825D01*
X282448720Y-36558383D01*
X282373357Y-36187007D01*
X282258540Y-35870332D01*
X282121041Y-35665622D01*
X282119876Y-35664568D01*
X282000512Y-35574983D01*
X281901380Y-35588271D01*
X281753089Y-35713451D01*
X281697323Y-35774175D01*
X281540352Y-36013884D01*
X281415309Y-36292792D01*
X281381427Y-36400346D01*
X281311737Y-36689247D01*
X281284000Y-36917082D01*
X281284000Y-37156000D01*
X280416228Y-37156000D01*
X280458851Y-37125513D01*
X280505860Y-36927694D01*
X280506849Y-36917112D01*
X280499365Y-36734910D01*
X280412356Y-36596879D01*
X280209526Y-36443740D01*
X280141764Y-36400560D01*
X279861930Y-36245053D01*
X279611833Y-36134596D01*
X279607300Y-36133008D01*
X279394496Y-36015596D01*
X279347498Y-35874334D01*
X279467708Y-35713312D01*
X279599889Y-35653128D01*
X279868394Y-35620857D01*
X280184034Y-35642460D01*
X280482275Y-35717658D01*
X280556748Y-35743252D01*
X280687026Y-35751754D01*
X280813223Y-35674040D01*
X280988525Y-35485745D01*
X281068066Y-35395013D01*
X281203550Y-35264944D01*
X281344393Y-35196818D01*
X281545250Y-35170619D01*
X281860776Y-35166333D01*
X281903520Y-35166522D01*
X282340020Y-35203111D01*
X282661323Y-35319617D01*
X282909220Y-35539878D01*
X283125500Y-35887730D01*
X283213572Y-36085214D01*
X283276417Y-36319854D01*
X283307401Y-36615396D01*
X283315528Y-37025773D01*
X283295342Y-37591686D01*
X283226401Y-38066424D01*
X283108255Y-38380205D01*
X282940653Y-38533668D01*
X282723342Y-38527451D01*
X282696432Y-38536847D01*
X282745045Y-38635136D01*
X282880836Y-38806462D01*
X282919621Y-38851147D01*
X283073214Y-39057962D01*
X283131759Y-39235662D01*
X283121720Y-39455554D01*
X283114966Y-39516632D01*
X283115820Y-39721569D01*
X283154725Y-39827980D01*
X283179024Y-39849605D01*
X283227409Y-40001198D01*
X283209634Y-40198570D01*
X283129733Y-40356400D01*
X283072848Y-40433608D01*
X283141566Y-40458000D01*
X283144263Y-40458037D01*
X283286415Y-40527974D01*
X283420709Y-40681925D01*
X283482640Y-40846428D01*
X283480432Y-40858344D01*
X283380726Y-40955451D01*
X283150553Y-41095298D01*
X282814345Y-41265370D01*
X282396535Y-41453151D01*
X281921555Y-41646126D01*
X281698798Y-41733587D01*
X281517670Y-41818173D01*
X281468690Y-41881360D01*
X281560431Y-41936302D01*
X281801461Y-41996154D01*
X282200351Y-42074073D01*
X282405297Y-42118249D01*
X282734608Y-42230729D01*
X282919374Y-42374399D01*
X282976037Y-42559547D01*
X282952631Y-42701892D01*
X282867724Y-42855964D01*
X282757908Y-42904150D01*
X282754292Y-42903622D01*
X282634729Y-42933275D01*
X282411781Y-43018843D01*
X282130666Y-43143099D01*
X281580333Y-43400169D01*
X281897833Y-43453084D01*
X281902941Y-43453935D01*
X282211606Y-43504401D01*
X282509174Y-43551702D01*
X282704100Y-43600035D01*
X283022523Y-43776152D01*
X283237250Y-44034710D01*
X283316000Y-44344011D01*
X283315534Y-44372870D01*
X283278346Y-44627147D01*
X283199859Y-44817801D01*
X283161206Y-44877235D01*
X283127620Y-45027085D01*
X283188723Y-45236150D01*
X283217228Y-45323015D01*
X283273258Y-45599050D01*
X283317409Y-45951692D01*
X283346538Y-46332207D01*
X283357503Y-46691858D01*
X283347161Y-46981910D01*
X283312370Y-47153628D01*
X283260247Y-47258526D01*
X283158295Y-47465565D01*
X283130875Y-47560913D01*
X283200628Y-47722903D01*
X283218923Y-47744183D01*
X283288027Y-47920157D01*
X283316000Y-48161932D01*
X283316000Y-48493188D01*
X282596222Y-48830487D01*
X282493023Y-48878429D01*
X282454376Y-48896383D01*
X282100731Y-49056198D01*
X281791260Y-49190282D01*
X281580222Y-49274902D01*
X281530999Y-49293349D01*
X281355210Y-49372661D01*
X281284296Y-49428508D01*
X281338099Y-49458938D01*
X281525787Y-49525736D01*
X281816374Y-49615403D01*
X282176594Y-49717179D01*
X282469601Y-49801524D01*
X282808428Y-49912258D01*
X283062610Y-50010888D01*
X283192298Y-50083060D01*
X283211969Y-50107134D01*
X283254390Y-50210714D01*
X283284065Y-50390390D01*
X283302859Y-50669451D01*
X283312637Y-51071185D01*
X283315264Y-51618881D01*
X283314025Y-51915894D01*
X283307304Y-52415466D01*
X283295762Y-52866411D01*
X283280544Y-53228496D01*
X283262797Y-53461486D01*
X283211066Y-53891973D01*
X281709052Y-53852560D01*
X281295898Y-53843432D01*
X280796335Y-53839902D01*
X280452184Y-53849197D01*
X280446283Y-53849356D01*
X280234028Y-53872217D01*
G37*
G36*
X282927218Y-32380815D02*
G01*
X283140521Y-32553085D01*
X283241618Y-32700409D01*
X283319811Y-32946003D01*
X283238774Y-33134005D01*
X282998500Y-33264450D01*
X282974894Y-33272199D01*
X282654627Y-33410307D01*
X282300674Y-33607745D01*
X281977305Y-33825436D01*
X281748791Y-34024301D01*
X281692632Y-34089233D01*
X281668755Y-34148503D01*
X281733220Y-34179269D01*
X281913024Y-34190875D01*
X282235165Y-34192666D01*
X282403239Y-34195267D01*
X282797944Y-34236791D01*
X283056769Y-34337980D01*
X283200353Y-34510500D01*
X283249331Y-34766019D01*
X283249685Y-34780363D01*
X283242812Y-34977601D01*
X283217997Y-35080892D01*
X283139276Y-35088824D01*
X282916190Y-35088627D01*
X282576855Y-35079831D01*
X282148890Y-35063173D01*
X281659911Y-35039387D01*
X281257841Y-35018746D01*
X280747519Y-34994532D01*
X280291739Y-34975046D01*
X279928674Y-34961895D01*
X279696500Y-34956687D01*
X279687545Y-34956636D01*
X279400054Y-34934752D01*
X279262598Y-34869342D01*
X279275901Y-34753108D01*
X279440685Y-34578753D01*
X279757672Y-34338981D01*
X279772919Y-34328839D01*
X280028199Y-34230417D01*
X280351139Y-34192666D01*
X280500189Y-34187824D01*
X280715034Y-34140136D01*
X280838208Y-34027832D01*
X280884314Y-33933884D01*
X280862553Y-33822765D01*
X280716674Y-33686427D01*
X280694811Y-33669914D01*
X280490173Y-33538374D01*
X280197355Y-33372237D01*
X279872100Y-33203385D01*
X279706310Y-33118844D01*
X279419044Y-32946855D01*
X279280759Y-32808842D01*
X279282613Y-32692864D01*
X279415767Y-32586979D01*
X279496408Y-32551875D01*
X279832614Y-32507396D01*
X280243633Y-32568330D01*
X280692277Y-32726356D01*
X281141360Y-32973151D01*
X281464387Y-33186384D01*
X281792469Y-32889982D01*
X281965836Y-32740123D01*
X282347926Y-32472323D01*
X282665703Y-32353224D01*
X282927218Y-32380815D01*
G37*
%TD*%
D10*
%TO.C,MX1*%
X9000000Y-9000000D03*
D11*
X6460000Y-14080000D03*
D12*
X14080000Y-9000000D03*
D11*
X12810000Y-11540000D03*
D12*
X3920000Y-9000000D03*
D13*
X16085000Y-11540000D03*
X3158000Y-14080000D03*
%TD*%
D12*
%TO.C,MX2*%
X22970000Y-9000000D03*
D10*
X28050000Y-9000000D03*
D11*
X31860000Y-11540000D03*
D12*
X33130000Y-9000000D03*
D11*
X25510000Y-14080000D03*
D13*
X35135000Y-11540000D03*
X22208000Y-14080000D03*
%TD*%
D12*
%TO.C,MX3*%
X52180000Y-9000000D03*
D10*
X47100000Y-9000000D03*
D12*
X42020000Y-9000000D03*
D11*
X43290000Y-6460000D03*
X49640000Y-3920000D03*
D13*
X40015000Y-6460000D03*
X52942000Y-3920000D03*
%TD*%
D11*
%TO.C,MX4*%
X62340000Y-6460000D03*
D12*
X61070000Y-9000000D03*
D11*
X68690000Y-3920000D03*
D10*
X66150000Y-9000000D03*
D12*
X71230000Y-9000000D03*
D13*
X59065000Y-6460000D03*
X71992000Y-3920000D03*
%TD*%
D12*
%TO.C,MX5*%
X90280000Y-9000000D03*
D11*
X87740000Y-3920000D03*
D12*
X80120000Y-9000000D03*
D10*
X85200000Y-9000000D03*
D11*
X81390000Y-6460000D03*
D13*
X78115000Y-6460000D03*
X91042000Y-3920000D03*
%TD*%
D11*
%TO.C,MX6*%
X106790000Y-3920000D03*
D10*
X104250000Y-9000000D03*
D12*
X109330000Y-9000000D03*
D11*
X100440000Y-6460000D03*
D12*
X99170000Y-9000000D03*
D13*
X97165000Y-6460000D03*
X110092000Y-3920000D03*
%TD*%
D11*
%TO.C,MX7*%
X119490000Y-6460000D03*
D12*
X118220000Y-9000000D03*
D11*
X125840000Y-3920000D03*
D12*
X128380000Y-9000000D03*
D10*
X123300000Y-9000000D03*
D13*
X116215000Y-6460000D03*
D14*
X129142000Y-3920000D03*
%TD*%
D11*
%TO.C,MX9*%
X163940000Y-3920000D03*
D12*
X156320000Y-9000000D03*
D11*
X157590000Y-6460000D03*
D12*
X166480000Y-9000000D03*
D10*
X161400000Y-9000000D03*
D13*
X154315000Y-6460000D03*
X167242000Y-3920000D03*
%TD*%
D11*
%TO.C,MX10*%
X182990000Y-3920000D03*
X176640000Y-6460000D03*
D12*
X185530000Y-9000000D03*
X175370000Y-9000000D03*
D10*
X180450000Y-9000000D03*
D13*
X173365000Y-6460000D03*
D14*
X186292000Y-3920000D03*
%TD*%
D10*
%TO.C,MX11*%
X199500000Y-9000000D03*
D12*
X194420000Y-9000000D03*
D11*
X202040000Y-3920000D03*
D12*
X204580000Y-9000000D03*
D11*
X195690000Y-6460000D03*
D13*
X192415000Y-6460000D03*
X205342000Y-3920000D03*
%TD*%
D11*
%TO.C,MX12*%
X214740000Y-6460000D03*
D10*
X218550000Y-9000000D03*
D11*
X221090000Y-3920000D03*
D12*
X223630000Y-9000000D03*
X213470000Y-9000000D03*
D13*
X211465000Y-6460000D03*
X224392000Y-3920000D03*
%TD*%
D11*
%TO.C,MX13*%
X233790000Y-6460000D03*
D10*
X237600000Y-9000000D03*
D12*
X232520000Y-9000000D03*
X242680000Y-9000000D03*
D11*
X240140000Y-3920000D03*
D13*
X230515000Y-6460000D03*
X243442000Y-3920000D03*
%TD*%
D12*
%TO.C,MX14*%
X261730000Y-9000000D03*
X251570000Y-9000000D03*
D11*
X254110000Y-14080000D03*
X260460000Y-11540000D03*
D10*
X256650000Y-9000000D03*
D13*
X263735000Y-11540000D03*
X250808000Y-14080000D03*
%TD*%
D11*
%TO.C,MX16*%
X268715000Y-3920000D03*
X262365000Y-6460000D03*
D10*
X278113000Y-17255000D03*
X254237000Y-17255000D03*
D12*
X271255000Y-9000000D03*
D15*
X278113000Y-2015000D03*
X254237000Y-2015000D03*
D10*
X266175000Y-9000000D03*
D12*
X261095000Y-9000000D03*
D13*
X259090000Y-6460000D03*
D14*
X272017000Y-3920000D03*
%TD*%
D10*
%TO.C,MX17*%
X13762500Y-28050000D03*
D12*
X18842500Y-28050000D03*
D11*
X9952500Y-25510000D03*
X16302500Y-22970000D03*
D12*
X8682500Y-28050000D03*
D13*
X6677500Y-25510000D03*
X19604500Y-22970000D03*
%TD*%
D11*
%TO.C,MX18*%
X40115000Y-22970000D03*
X33765000Y-25510000D03*
D12*
X42655000Y-28050000D03*
D10*
X37575000Y-28050000D03*
D12*
X32495000Y-28050000D03*
D13*
X30490000Y-25510000D03*
X43417000Y-22970000D03*
%TD*%
D11*
%TO.C,MX19*%
X59165000Y-22970000D03*
D10*
X56625000Y-28050000D03*
D12*
X51545000Y-28050000D03*
D11*
X52815000Y-25510000D03*
D12*
X61705000Y-28050000D03*
D13*
X49540000Y-25510000D03*
X62467000Y-22970000D03*
%TD*%
D10*
%TO.C,MX20*%
X75675000Y-28050000D03*
D11*
X71865000Y-25510000D03*
X78215000Y-22970000D03*
D12*
X70595000Y-28050000D03*
X80755000Y-28050000D03*
D13*
X68590000Y-25510000D03*
X81517000Y-22970000D03*
%TD*%
D10*
%TO.C,MX21*%
X94725000Y-28050000D03*
D12*
X89645000Y-28050000D03*
X99805000Y-28050000D03*
D11*
X97265000Y-22970000D03*
X90915000Y-25510000D03*
D13*
X87640000Y-25510000D03*
X100567000Y-22970000D03*
%TD*%
D11*
%TO.C,MX22*%
X116315000Y-22970000D03*
D12*
X108695000Y-28050000D03*
X118855000Y-28050000D03*
D10*
X113775000Y-28050000D03*
D11*
X109965000Y-25510000D03*
D13*
X106690000Y-25510000D03*
X119617000Y-22970000D03*
%TD*%
D12*
%TO.C,MX23*%
X137905000Y-28050000D03*
D11*
X135365000Y-22970000D03*
D10*
X132825000Y-28050000D03*
D12*
X127745000Y-28050000D03*
D11*
X129015000Y-25510000D03*
D13*
X125740000Y-25510000D03*
X138667000Y-22970000D03*
%TD*%
D10*
%TO.C,MX24*%
X151875000Y-28050000D03*
D11*
X154415000Y-22970000D03*
X148065000Y-25510000D03*
D12*
X146795000Y-28050000D03*
X156955000Y-28050000D03*
D13*
X144790000Y-25510000D03*
X157717000Y-22970000D03*
%TD*%
D11*
%TO.C,MX25*%
X167115000Y-25510000D03*
D12*
X176005000Y-28050000D03*
X165845000Y-28050000D03*
D11*
X173465000Y-22970000D03*
D10*
X170925000Y-28050000D03*
D13*
X163840000Y-25510000D03*
X176767000Y-22970000D03*
%TD*%
D12*
%TO.C,MX26*%
X195055000Y-28050000D03*
D11*
X192515000Y-22970000D03*
D10*
X189975000Y-28050000D03*
D11*
X186165000Y-25510000D03*
D12*
X184895000Y-28050000D03*
D13*
X182890000Y-25510000D03*
X195817000Y-22970000D03*
%TD*%
D11*
%TO.C,MX27*%
X205215000Y-25510000D03*
D12*
X214105000Y-28050000D03*
X203945000Y-28050000D03*
D10*
X209025000Y-28050000D03*
D11*
X211565000Y-22970000D03*
D13*
X201940000Y-25510000D03*
X214867000Y-22970000D03*
%TD*%
D12*
%TO.C,MX28*%
X233155000Y-28050000D03*
D11*
X230615000Y-22970000D03*
D12*
X222995000Y-28050000D03*
D11*
X224265000Y-25510000D03*
D10*
X228075000Y-28050000D03*
D13*
X220990000Y-25510000D03*
X233917000Y-22970000D03*
%TD*%
D11*
%TO.C,MX29*%
X249665000Y-22970000D03*
D10*
X247125000Y-28050000D03*
D12*
X242045000Y-28050000D03*
X252205000Y-28050000D03*
D11*
X243315000Y-25510000D03*
D13*
X240040000Y-25510000D03*
X252967000Y-22970000D03*
%TD*%
D10*
%TO.C,MX30*%
X270937500Y-28050000D03*
D12*
X265857500Y-28050000D03*
X276017500Y-28050000D03*
D11*
X273477500Y-22970000D03*
X267127500Y-25510000D03*
D16*
X263852500Y-25510000D03*
D13*
X276779500Y-22970000D03*
%TD*%
D10*
%TO.C,MX31*%
X11381250Y-47100000D03*
D12*
X6301250Y-47100000D03*
D11*
X15191250Y-49640000D03*
X8841250Y-52180000D03*
D12*
X16461250Y-47100000D03*
D13*
X18466250Y-49640000D03*
X5539250Y-52180000D03*
%TD*%
D11*
%TO.C,MX32*%
X12333750Y-44560000D03*
D12*
X21223750Y-47100000D03*
X11063750Y-47100000D03*
D11*
X18683750Y-42020000D03*
D10*
X16143750Y-47100000D03*
D13*
X9058750Y-44560000D03*
X21985750Y-42020000D03*
%TD*%
D12*
%TO.C,MX33*%
X47417500Y-47100000D03*
D11*
X38527500Y-44560000D03*
D12*
X37257500Y-47100000D03*
D11*
X44877500Y-42020000D03*
D10*
X42337500Y-47100000D03*
D13*
X35252500Y-44560000D03*
X48179500Y-42020000D03*
%TD*%
D12*
%TO.C,MX34*%
X56307500Y-47100000D03*
D10*
X61387500Y-47100000D03*
D12*
X66467500Y-47100000D03*
D11*
X63927500Y-42020000D03*
X57577500Y-44560000D03*
D13*
X54302500Y-44560000D03*
X67229500Y-42020000D03*
%TD*%
D10*
%TO.C,MX35*%
X80437500Y-47100000D03*
D12*
X75357500Y-47100000D03*
D11*
X76627500Y-44560000D03*
X82977500Y-42020000D03*
D12*
X85517500Y-47100000D03*
D13*
X73352500Y-44560000D03*
X86279500Y-42020000D03*
%TD*%
D10*
%TO.C,MX36*%
X99487500Y-47100000D03*
D12*
X94407500Y-47100000D03*
D11*
X102027500Y-42020000D03*
X95677500Y-44560000D03*
D12*
X104567500Y-47100000D03*
D13*
X92402500Y-44560000D03*
X105329500Y-42020000D03*
%TD*%
D11*
%TO.C,MX37*%
X114727500Y-44560000D03*
D12*
X123617500Y-47100000D03*
D10*
X118537500Y-47100000D03*
D12*
X113457500Y-47100000D03*
D11*
X121077500Y-42020000D03*
D13*
X111452500Y-44560000D03*
X124379500Y-42020000D03*
%TD*%
D11*
%TO.C,MX38*%
X140127500Y-42020000D03*
D10*
X137587500Y-47100000D03*
D11*
X133777500Y-44560000D03*
D12*
X132507500Y-47100000D03*
X142667500Y-47100000D03*
D17*
X130502500Y-44560000D03*
D13*
X143429500Y-42020000D03*
%TD*%
D12*
%TO.C,MX39*%
X151557500Y-47100000D03*
D11*
X152827500Y-44560000D03*
X159177500Y-42020000D03*
D12*
X161717500Y-47100000D03*
D10*
X156637500Y-47100000D03*
D13*
X149552500Y-44560000D03*
X162479500Y-42020000D03*
%TD*%
D11*
%TO.C,MX40*%
X178227500Y-42020000D03*
D10*
X175687500Y-47100000D03*
D11*
X171877500Y-44560000D03*
D12*
X170607500Y-47100000D03*
X180767500Y-47100000D03*
D13*
X168602500Y-44560000D03*
X181529500Y-42020000D03*
%TD*%
D10*
%TO.C,MX41*%
X194737500Y-47100000D03*
D11*
X197277500Y-42020000D03*
X190927500Y-44560000D03*
D12*
X189657500Y-47100000D03*
X199817500Y-47100000D03*
D13*
X187652500Y-44560000D03*
X200579500Y-42020000D03*
%TD*%
D10*
%TO.C,MX42*%
X213787500Y-47100000D03*
D11*
X209977500Y-44560000D03*
D12*
X218867500Y-47100000D03*
X208707500Y-47100000D03*
D11*
X216327500Y-42020000D03*
D13*
X206702500Y-44560000D03*
X219629500Y-42020000D03*
%TD*%
D10*
%TO.C,MX43*%
X232837500Y-47100000D03*
D11*
X235377500Y-42020000D03*
D12*
X227757500Y-47100000D03*
D11*
X229027500Y-44560000D03*
D12*
X237917500Y-47100000D03*
D13*
X225752500Y-44560000D03*
X238679500Y-42020000D03*
%TD*%
D15*
%TO.C,MX44*%
X251855750Y-40115000D03*
D10*
X275731750Y-55355000D03*
D11*
X266333750Y-42020000D03*
D12*
X268873750Y-47100000D03*
D10*
X263793750Y-47100000D03*
D12*
X258713750Y-47100000D03*
D11*
X259983750Y-44560000D03*
D10*
X251855750Y-55355000D03*
D15*
X275731750Y-40115000D03*
D13*
X256708750Y-44560000D03*
X269635750Y-42020000D03*
%TD*%
D15*
%TO.C,MX45*%
X8968250Y-59165000D03*
D11*
X17096250Y-63610000D03*
D12*
X15826250Y-66150000D03*
D10*
X20906250Y-66150000D03*
X32844250Y-74405000D03*
X8968250Y-74405000D03*
D12*
X25986250Y-66150000D03*
D11*
X23446250Y-61070000D03*
D15*
X32844250Y-59165000D03*
D13*
X13821250Y-63610000D03*
X26748250Y-61070000D03*
%TD*%
D11*
%TO.C,MX46*%
X54402500Y-61070000D03*
D12*
X56942500Y-66150000D03*
X46782500Y-66150000D03*
D11*
X48052500Y-63610000D03*
D10*
X51862500Y-66150000D03*
D13*
X44777500Y-63610000D03*
X57704500Y-61070000D03*
%TD*%
D12*
%TO.C,MX47*%
X65832500Y-66150000D03*
D11*
X67102500Y-63610000D03*
D12*
X75992500Y-66150000D03*
D10*
X70912500Y-66150000D03*
D11*
X73452500Y-61070000D03*
D13*
X63827500Y-63610000D03*
X76754500Y-61070000D03*
%TD*%
D11*
%TO.C,MX48*%
X86152500Y-63610000D03*
D12*
X84882500Y-66150000D03*
D11*
X92502500Y-61070000D03*
D10*
X89962500Y-66150000D03*
D12*
X95042500Y-66150000D03*
D13*
X82877500Y-63610000D03*
X95804500Y-61070000D03*
%TD*%
D12*
%TO.C,MX49*%
X114092500Y-66150000D03*
D11*
X111552500Y-61070000D03*
D12*
X103932500Y-66150000D03*
D10*
X109012500Y-66150000D03*
D11*
X105202500Y-63610000D03*
D13*
X101927500Y-63610000D03*
X114854500Y-61070000D03*
%TD*%
D10*
%TO.C,MX50*%
X128062500Y-66150000D03*
D11*
X124252500Y-63610000D03*
X130602500Y-61070000D03*
D12*
X133142500Y-66150000D03*
X122982500Y-66150000D03*
D13*
X120977500Y-63610000D03*
X133904500Y-61070000D03*
%TD*%
D10*
%TO.C,MX51*%
X147112500Y-66150000D03*
D11*
X143302500Y-63610000D03*
D12*
X142032500Y-66150000D03*
D11*
X149652500Y-61070000D03*
D12*
X152192500Y-66150000D03*
D13*
X140027500Y-63610000D03*
X152954500Y-61070000D03*
%TD*%
D10*
%TO.C,MX52*%
X166162500Y-66150000D03*
D11*
X168702500Y-61070000D03*
D12*
X161082500Y-66150000D03*
D11*
X162352500Y-63610000D03*
D12*
X171242500Y-66150000D03*
D13*
X159077500Y-63610000D03*
X172004500Y-61070000D03*
%TD*%
D12*
%TO.C,MX53*%
X180132500Y-66150000D03*
D11*
X181402500Y-63610000D03*
D10*
X185212500Y-66150000D03*
D12*
X190292500Y-66150000D03*
D11*
X187752500Y-61070000D03*
D13*
X178127500Y-63610000D03*
X191054500Y-61070000D03*
%TD*%
D12*
%TO.C,MX54*%
X199182500Y-66150000D03*
D11*
X200452500Y-63610000D03*
D12*
X209342500Y-66150000D03*
D10*
X204262500Y-66150000D03*
D11*
X206802500Y-61070000D03*
D13*
X197177500Y-63610000D03*
X210104500Y-61070000D03*
%TD*%
D10*
%TO.C,MX55*%
X223312500Y-66150000D03*
D11*
X219502500Y-63610000D03*
D12*
X228392500Y-66150000D03*
D11*
X225852500Y-61070000D03*
D12*
X218232500Y-66150000D03*
D13*
X216227500Y-63610000D03*
X229154500Y-61070000D03*
%TD*%
D12*
%TO.C,MX56*%
X244426250Y-66150000D03*
D11*
X246966250Y-71230000D03*
X253316250Y-68690000D03*
D10*
X249506250Y-66150000D03*
D12*
X254586250Y-66150000D03*
D13*
X256591250Y-68690000D03*
X243664250Y-71230000D03*
%TD*%
D11*
%TO.C,MX57*%
X271890000Y-63610000D03*
X278240000Y-61070000D03*
D12*
X270620000Y-66150000D03*
X280780000Y-66150000D03*
D10*
X275700000Y-66150000D03*
D13*
X268615000Y-63610000D03*
X281542000Y-61070000D03*
%TD*%
D12*
%TO.C,MX60*%
X40273750Y-85200000D03*
D10*
X35193750Y-85200000D03*
D11*
X37733750Y-80120000D03*
D12*
X30113750Y-85200000D03*
D11*
X31383750Y-82660000D03*
D16*
X28108750Y-82660000D03*
D13*
X41035750Y-80120000D03*
%TD*%
D12*
%TO.C,MX61*%
X53926250Y-85200000D03*
D10*
X59006250Y-85200000D03*
D12*
X64086250Y-85200000D03*
D11*
X61546250Y-80120000D03*
X55196250Y-82660000D03*
D13*
X51921250Y-82660000D03*
X64848250Y-80120000D03*
%TD*%
D12*
%TO.C,MX63*%
X196801250Y-85200000D03*
D10*
X201881250Y-85200000D03*
D11*
X198071250Y-82660000D03*
D12*
X206961250Y-85200000D03*
D11*
X204421250Y-80120000D03*
D13*
X194796250Y-82660000D03*
X207723250Y-80120000D03*
%TD*%
D12*
%TO.C,MX64*%
X220613750Y-85200000D03*
D10*
X225693750Y-85200000D03*
D12*
X230773750Y-85200000D03*
D11*
X221883750Y-82660000D03*
X228233750Y-80120000D03*
D13*
X218608750Y-82660000D03*
X231535750Y-80120000D03*
%TD*%
D11*
%TO.C,MX65*%
X245696250Y-82660000D03*
D12*
X244426250Y-85200000D03*
D11*
X252046250Y-80120000D03*
D10*
X249506250Y-85200000D03*
D12*
X254586250Y-85200000D03*
D13*
X242421250Y-82660000D03*
X255348250Y-80120000D03*
%TD*%
D11*
%TO.C,MX66*%
X269508750Y-82660000D03*
D12*
X268238750Y-85200000D03*
D11*
X275858750Y-80120000D03*
D12*
X278398750Y-85200000D03*
D10*
X273318750Y-85200000D03*
D13*
X266233750Y-82660000D03*
X279160750Y-80120000D03*
%TD*%
D11*
%TO.C,MX71*%
X227122500Y-87740000D03*
D10*
X223312500Y-85200000D03*
D11*
X220772500Y-90280000D03*
D12*
X228392500Y-85200000D03*
X218232500Y-85200000D03*
D13*
X230397500Y-87740000D03*
X217470500Y-90280000D03*
%TD*%
D12*
%TO.C,MX8*%
X147430000Y-9000000D03*
X137270000Y-9000000D03*
D10*
X142350000Y-9000000D03*
D11*
X144890000Y-3920000D03*
X138540000Y-6460000D03*
D13*
X135265000Y-6460000D03*
X148192000Y-3920000D03*
%TD*%
D11*
%TO.C,MX58*%
X261571250Y-61070000D03*
D10*
X270969250Y-74405000D03*
D12*
X253951250Y-66150000D03*
D15*
X247093250Y-59165000D03*
D10*
X247093250Y-74405000D03*
D12*
X264111250Y-66150000D03*
D10*
X259031250Y-66150000D03*
D15*
X270969250Y-59165000D03*
D11*
X255221250Y-63610000D03*
D13*
X251946250Y-63610000D03*
X264873250Y-61070000D03*
%TD*%
D12*
%TO.C,MX69*%
X56307500Y-85200000D03*
D11*
X65197500Y-87740000D03*
D10*
X61387500Y-85200000D03*
D11*
X58847500Y-90280000D03*
D12*
X66467500Y-85200000D03*
D13*
X68472500Y-87740000D03*
X55545500Y-90280000D03*
%TD*%
D15*
%TO.C,MX70*%
X85200000Y-92185000D03*
D10*
X85200000Y-76945000D03*
X142350000Y-85200000D03*
D11*
X144890000Y-80120000D03*
D15*
X199500000Y-92185000D03*
D11*
X138540000Y-82660000D03*
D12*
X147430000Y-85200000D03*
X137270000Y-85200000D03*
D10*
X199500000Y-76945000D03*
D14*
X135265000Y-82660000D03*
D13*
X148192000Y-80120000D03*
%TD*%
D10*
%TO.C,MX72*%
X247125000Y-85200000D03*
D12*
X242045000Y-85200000D03*
D11*
X244585000Y-90280000D03*
D12*
X252205000Y-85200000D03*
D11*
X250935000Y-87740000D03*
D13*
X254210000Y-87740000D03*
X241283000Y-90280000D03*
%TD*%
D12*
%TO.C,MX73*%
X276017500Y-85200000D03*
D11*
X274747500Y-87740000D03*
D12*
X265857500Y-85200000D03*
D11*
X268397500Y-90280000D03*
D10*
X270937500Y-85200000D03*
D13*
X278022500Y-87740000D03*
X265095500Y-90280000D03*
%TD*%
D10*
%TO.C,MX62*%
X130443750Y-85200000D03*
D11*
X132983750Y-80120000D03*
D12*
X125363750Y-85200000D03*
D10*
X80443850Y-76945000D03*
X180443650Y-76945000D03*
D12*
X135523750Y-85200000D03*
D15*
X180443650Y-92185000D03*
D11*
X126633750Y-82660000D03*
D15*
X80443850Y-92185000D03*
D13*
X123358750Y-82660000D03*
D14*
X136285750Y-80120000D03*
%TD*%
D10*
%TO.C,MX59*%
X11381250Y-85200000D03*
D11*
X13921250Y-80120000D03*
X7571250Y-82660000D03*
D12*
X6301250Y-85200000D03*
X16461250Y-85200000D03*
D13*
X4296250Y-82660000D03*
X17223250Y-80120000D03*
%TD*%
D12*
%TO.C,MX67*%
X8682500Y-85200000D03*
D11*
X17572500Y-87740000D03*
X11222500Y-90280000D03*
D12*
X18842500Y-85200000D03*
D10*
X13762500Y-85200000D03*
D13*
X20847500Y-87740000D03*
X7920500Y-90280000D03*
%TD*%
D10*
%TO.C,MX15*%
X275700000Y-9000000D03*
D11*
X279510000Y-11540000D03*
D12*
X280780000Y-9000000D03*
X270620000Y-9000000D03*
D11*
X273160000Y-14080000D03*
D13*
X282785000Y-11540000D03*
X269858000Y-14080000D03*
%TD*%
D18*
%TO.C,S8*%
X26090000Y-85190072D03*
%TD*%
D19*
%TO.C,S2*%
X259890000Y-27692050D03*
%TD*%
D20*
%TO.C,J3*%
X172140000Y-90138600D03*
D21*
X170140000Y-90138600D03*
X168140000Y-90138600D03*
X166140000Y-90138600D03*
X164140000Y-90138600D03*
X162140000Y-90138600D03*
X172140000Y-92221400D03*
X170140000Y-92221400D03*
X168140000Y-92221400D03*
X166140000Y-92221400D03*
X164140000Y-92221400D03*
X162140000Y-92221400D03*
%TD*%
D19*
%TO.C,*%
X259895000Y-85190072D03*
%TD*%
D12*
%TO.C,MX68*%
X32498000Y-85200000D03*
D11*
X35038000Y-90280000D03*
D12*
X42658000Y-85200000D03*
D11*
X41388000Y-87740000D03*
D10*
X37578000Y-85200000D03*
D13*
X44663000Y-87740000D03*
X31736000Y-90280000D03*
%TD*%
D19*
%TO.C,S1*%
X25065000Y-28040024D03*
%TD*%
D22*
%TO.C,S7*%
X142340000Y-37215000D03*
%TD*%
%TO.C,S3*%
X128052608Y-46890040D03*
%TD*%
D18*
%TO.C,S6*%
X189965160Y-84990000D03*
%TD*%
D23*
%TO.C,JST*%
X45000000Y-16000000D03*
X45000000Y-17000000D03*
X45000000Y-18000000D03*
X45000000Y-19000000D03*
D24*
X48875000Y-20300000D03*
X48875000Y-14700000D03*
%TD*%
D25*
%TO.C,D1*%
X16220000Y-17930000D03*
X16220000Y-14630000D03*
%TD*%
%TO.C,D2*%
X37830000Y-13080000D03*
X37830000Y-9780000D03*
%TD*%
%TO.C,D3*%
X40170000Y-13100000D03*
X40170000Y-9800000D03*
%TD*%
%TO.C,D4*%
X57920000Y-13090000D03*
X57920000Y-9790000D03*
%TD*%
%TO.C,D5*%
X76890000Y-13100000D03*
X76890000Y-9800000D03*
%TD*%
%TO.C,D6*%
X95860000Y-13110000D03*
X95860000Y-9810000D03*
%TD*%
%TO.C,D7*%
X115010000Y-13120000D03*
X115010000Y-9820000D03*
%TD*%
%TO.C,D8*%
X134060000Y-13150000D03*
X134060000Y-9850000D03*
%TD*%
%TO.C,D9*%
X153140000Y-13110000D03*
X153140000Y-9810000D03*
%TD*%
%TO.C,D10*%
X172230000Y-13090000D03*
X172230000Y-9790000D03*
%TD*%
%TO.C,D11*%
X191140000Y-13120000D03*
X191140000Y-9820000D03*
%TD*%
%TO.C,D12*%
X210150000Y-13140000D03*
X210150000Y-9840000D03*
%TD*%
%TO.C,D14*%
X247490000Y-13090000D03*
X247490000Y-9790000D03*
%TD*%
%TO.C,D15*%
X245500000Y-13090000D03*
X245500000Y-9790000D03*
%TD*%
%TO.C,D16*%
X5660000Y-31980000D03*
X5660000Y-28680000D03*
%TD*%
%TO.C,D17*%
X29350000Y-32040000D03*
X29350000Y-28740000D03*
%TD*%
%TO.C,D18*%
X48410000Y-32090000D03*
X48410000Y-28790000D03*
%TD*%
%TO.C,D19*%
X67440000Y-32110000D03*
X67440000Y-28810000D03*
%TD*%
%TO.C,D20*%
X86410000Y-32070000D03*
X86410000Y-28770000D03*
%TD*%
%TO.C,D21*%
X105310000Y-32090000D03*
X105310000Y-28790000D03*
%TD*%
%TO.C,D22*%
X124310000Y-32100000D03*
X124310000Y-28800000D03*
%TD*%
%TO.C,D23*%
X143360000Y-32110000D03*
X143360000Y-28810000D03*
%TD*%
%TO.C,D24*%
X162450000Y-32080000D03*
X162450000Y-28780000D03*
%TD*%
%TO.C,D25*%
X181530000Y-32070000D03*
X181530000Y-28770000D03*
%TD*%
%TO.C,D26*%
X200610000Y-32140000D03*
X200610000Y-28840000D03*
%TD*%
%TO.C,D27*%
X219620000Y-32120000D03*
X219620000Y-28820000D03*
%TD*%
%TO.C,D28*%
X238600000Y-32090000D03*
X238600000Y-28790000D03*
%TD*%
%TO.C,D29*%
X262720000Y-34730000D03*
X262720000Y-31430000D03*
%TD*%
%TO.C,D30*%
X23150000Y-51400000D03*
X23150000Y-48100000D03*
%TD*%
%TO.C,D31*%
X34070000Y-51360000D03*
X34070000Y-48060000D03*
%TD*%
%TO.C,D32*%
X52950000Y-51400000D03*
X52950000Y-48100000D03*
%TD*%
%TO.C,D33*%
X71980000Y-51420000D03*
X71980000Y-48120000D03*
%TD*%
%TO.C,D35*%
X110030000Y-51390000D03*
X110030000Y-48090000D03*
%TD*%
%TO.C,D36*%
X128890000Y-53140000D03*
X128890000Y-49840000D03*
%TD*%
%TO.C,D37*%
X148080000Y-51400000D03*
X148080000Y-48100000D03*
%TD*%
%TO.C,D38*%
X167080000Y-51400000D03*
X167080000Y-48100000D03*
%TD*%
%TO.C,D39*%
X186140000Y-51370000D03*
X186140000Y-48070000D03*
%TD*%
%TO.C,D40*%
X205230000Y-51420000D03*
X205230000Y-48120000D03*
%TD*%
%TO.C,D41*%
X224050000Y-51400000D03*
X224050000Y-48100000D03*
%TD*%
%TO.C,D42*%
X255450000Y-51380000D03*
X255450000Y-48080000D03*
%TD*%
%TO.C,D43*%
X13200000Y-69890000D03*
X13200000Y-66590000D03*
%TD*%
%TO.C,D44*%
X43550000Y-69850000D03*
X43550000Y-66550000D03*
%TD*%
%TO.C,D45*%
X62780000Y-69850000D03*
X62780000Y-66550000D03*
%TD*%
%TO.C,D46*%
X81660000Y-69820000D03*
X81660000Y-66520000D03*
%TD*%
%TO.C,D47*%
X100850000Y-69910000D03*
X100850000Y-66610000D03*
%TD*%
%TO.C,D48*%
X119820000Y-69850000D03*
X119820000Y-66550000D03*
%TD*%
%TO.C,D49*%
X139060000Y-69910000D03*
X139060000Y-66610000D03*
%TD*%
%TO.C,D50*%
X158020000Y-69850000D03*
X158020000Y-66550000D03*
%TD*%
%TO.C,D51*%
X177130000Y-69980000D03*
X177130000Y-66680000D03*
%TD*%
%TO.C,D52*%
X195850000Y-69910000D03*
X195850000Y-66610000D03*
%TD*%
%TO.C,D53*%
X215130000Y-69910000D03*
X215130000Y-66610000D03*
%TD*%
%TO.C,D54*%
X240130000Y-69960000D03*
X240130000Y-66660000D03*
%TD*%
%TO.C,D55*%
X237640000Y-69860000D03*
X237640000Y-66560000D03*
%TD*%
%TO.C,D56*%
X24540000Y-91250000D03*
X24540000Y-87950000D03*
%TD*%
%TO.C,D57*%
X26880000Y-91270000D03*
X26880000Y-87970000D03*
%TD*%
%TO.C,D58*%
X51000000Y-89470000D03*
X51000000Y-86170000D03*
%TD*%
%TO.C,D59*%
X121840000Y-89330000D03*
X121840000Y-86030000D03*
%TD*%
%TO.C,D61*%
X213787500Y-87643750D03*
X213787500Y-84343750D03*
%TD*%
%TO.C,D62*%
X237550000Y-87643750D03*
X237550000Y-84343750D03*
%TD*%
%TO.C,D63*%
X261950000Y-80420000D03*
X261950000Y-77120000D03*
%TD*%
%TO.C,D13*%
X229160000Y-13110000D03*
X229160000Y-9810000D03*
%TD*%
%TO.C,D34*%
X91040000Y-51390000D03*
X91040000Y-48090000D03*
%TD*%
%TO.C,D60*%
X194070000Y-90100000D03*
X194070000Y-86800000D03*
%TD*%
D26*
%TO.C,1u*%
X147470000Y-87260000D03*
X147470000Y-88810000D03*
%TD*%
D27*
%TO.C,22u*%
X114355000Y-79230000D03*
X115905000Y-79230000D03*
%TD*%
D28*
%TO.C,1K*%
X154695000Y-79270000D03*
X153045000Y-79270000D03*
%TD*%
D29*
%TO.C,10K*%
X156165000Y-79270000D03*
X157815000Y-79270000D03*
%TD*%
D30*
%TO.C,100n*%
X160885000Y-79390000D03*
X159335000Y-79390000D03*
%TD*%
D31*
%TO.C,J2*%
X15280000Y-5170000D03*
X21060000Y-5170000D03*
D32*
X14920000Y-6615000D03*
X15720000Y-6615000D03*
D33*
X16920000Y-6615000D03*
X17920000Y-6615000D03*
X18420000Y-6615000D03*
X19420000Y-6615000D03*
D32*
X20620000Y-6615000D03*
X21420000Y-6615000D03*
X21420000Y-6615000D03*
X20620000Y-6615000D03*
D33*
X19920000Y-6615000D03*
X18920000Y-6615000D03*
X17420000Y-6615000D03*
X16420000Y-6615000D03*
D32*
X15720000Y-6615000D03*
X14920000Y-6615000D03*
D34*
X22490000Y-5700000D03*
D35*
X22490000Y-1520000D03*
D34*
X13850000Y-5700000D03*
D35*
X13850000Y-1520000D03*
%TD*%
D36*
%TO.C,22r*%
X151930000Y-88875000D03*
X151930000Y-87225000D03*
%TD*%
D26*
%TO.C,100n*%
X158800000Y-87275000D03*
X158800000Y-88825000D03*
%TD*%
D37*
%TO.C,1K*%
X174390000Y-87125000D03*
X174390000Y-88775000D03*
%TD*%
D38*
%TO.C,500ma*%
X27860000Y-20775000D03*
X27860000Y-22825000D03*
%TD*%
D27*
%TO.C,100n*%
X173080000Y-82820000D03*
X174630000Y-82820000D03*
%TD*%
D39*
%TO.C,LED*%
X175920000Y-88727500D03*
X175920000Y-87152500D03*
%TD*%
D26*
%TO.C,100n*%
X160310000Y-87675000D03*
X160310000Y-89225000D03*
%TD*%
D36*
%TO.C,5.1k*%
X10920000Y-5915000D03*
X10920000Y-4265000D03*
%TD*%
D40*
%TO.C,U2*%
X109590000Y-86410000D03*
D41*
X115890000Y-84110000D03*
D40*
X109590000Y-84110000D03*
X109590000Y-81810000D03*
%TD*%
D42*
%TO.C,SW1*%
X139690000Y-91830000D03*
X133390000Y-91830000D03*
X133390000Y-88030000D03*
X139690000Y-88030000D03*
%TD*%
D27*
%TO.C,100n*%
X172455000Y-84320000D03*
X174005000Y-84320000D03*
%TD*%
D43*
%TO.C,U1*%
X23410000Y-20832500D03*
X24360000Y-20832500D03*
X25310000Y-20832500D03*
X25310000Y-23107500D03*
X24360000Y-23107500D03*
X23410000Y-23107500D03*
%TD*%
D42*
%TO.C,SW2*%
X180120000Y-88520000D03*
X186420000Y-88520000D03*
D44*
X186420000Y-84720000D03*
D42*
X180120000Y-84720000D03*
%TD*%
D45*
%TO.C,100n*%
X148960000Y-88815000D03*
X148960000Y-87265000D03*
%TD*%
D30*
%TO.C,22u*%
X115945000Y-88980000D03*
X114395000Y-88980000D03*
%TD*%
D36*
%TO.C,5.1k*%
X25100000Y-5785000D03*
X25100000Y-4135000D03*
%TD*%
D26*
%TO.C,22p*%
X179930000Y-81295000D03*
X179930000Y-82845000D03*
%TD*%
D36*
%TO.C,22r*%
X153430000Y-88870000D03*
X153430000Y-87220000D03*
%TD*%
D26*
%TO.C,100n*%
X150440000Y-87270000D03*
X150440000Y-88820000D03*
%TD*%
%TO.C,1u*%
X157300000Y-87265000D03*
X157300000Y-88815000D03*
%TD*%
%TO.C,22p*%
X181450000Y-81305000D03*
X181450000Y-82855000D03*
%TD*%
D27*
%TO.C,100n*%
X168005000Y-77160000D03*
X169555000Y-77160000D03*
%TD*%
D46*
%TO.C,U3*%
X152270000Y-85175000D03*
X152270000Y-83905000D03*
X152270000Y-82635000D03*
X152270000Y-81365000D03*
X159470000Y-81365000D03*
X159470000Y-82635000D03*
X159470000Y-83905000D03*
X159470000Y-85175000D03*
%TD*%
D26*
%TO.C,100n*%
X155800000Y-87265000D03*
X155800000Y-88815000D03*
%TD*%
D47*
%TO.C,Y1*%
X178120000Y-81690000D03*
X178120000Y-83890000D03*
X176420000Y-83890000D03*
X176420000Y-81690000D03*
%TD*%
D29*
%TO.C,1k*%
X172415000Y-81310000D03*
X174065000Y-81310000D03*
%TD*%
D48*
%TO.C,U4*%
X163090000Y-79552500D03*
X163490000Y-79552500D03*
X163890000Y-79552500D03*
X164290000Y-79552500D03*
X164690000Y-79552500D03*
X165090000Y-79552500D03*
X165490000Y-79552500D03*
X165890000Y-79552500D03*
X166290000Y-79552500D03*
X166690000Y-79552500D03*
X167090000Y-79552500D03*
X167490000Y-79552500D03*
X167890000Y-79552500D03*
X168290000Y-79552500D03*
D49*
X169127500Y-80390000D03*
X169127500Y-80790000D03*
X169127500Y-81190000D03*
X169127500Y-81590000D03*
X169127500Y-81990000D03*
X169127500Y-82390000D03*
X169127500Y-82790000D03*
X169127500Y-83190000D03*
X169127500Y-83590000D03*
X169127500Y-83990000D03*
X169127500Y-84390000D03*
X169127500Y-84790000D03*
X169127500Y-85190000D03*
X169127500Y-85590000D03*
D48*
X168290000Y-86427500D03*
X167890000Y-86427500D03*
X167490000Y-86427500D03*
X167090000Y-86427500D03*
X166690000Y-86427500D03*
X166290000Y-86427500D03*
X165890000Y-86427500D03*
X165490000Y-86427500D03*
X165090000Y-86427500D03*
X164690000Y-86427500D03*
X164290000Y-86427500D03*
X163890000Y-86427500D03*
X163490000Y-86427500D03*
X163090000Y-86427500D03*
D49*
X162252500Y-85590000D03*
X162252500Y-85190000D03*
X162252500Y-84790000D03*
X162252500Y-84390000D03*
X162252500Y-83990000D03*
X162252500Y-83590000D03*
X162252500Y-83190000D03*
X162252500Y-82790000D03*
X162252500Y-82390000D03*
X162252500Y-81990000D03*
X162252500Y-81590000D03*
X162252500Y-81190000D03*
X162252500Y-80790000D03*
X162252500Y-80390000D03*
D50*
X165690000Y-82990000D03*
%TD*%
M02*
