M48
INCH
T1C0.0118
T2C0.0138
T3C0.0157
T4C0.0236
T5C0.0315
T6C0.0984
%
G90
G05
T1
X0.6705Y-0.2087
X0.7594Y-0.2087
X1.6705Y-2.974
X2.3181Y-3.0669
X5.5203Y-3.0226
X6.4244Y-3.2472
X6.426Y-3.328
X6.5626Y-3.4291
X6.6252Y-3.2941
T2
X6.473Y-3.2171
X6.473Y-3.2673
X6.473Y-3.3175
X6.5232Y-3.2171
X6.5232Y-3.2673
X6.5232Y-3.3175
X6.5734Y-3.2171
X6.5734Y-3.2673
X6.5734Y-3.3175
T3
X0.222Y-1.2598
X0.4232Y-0.5496
X0.4307Y-0.2335
X0.4314Y-0.1664
X0.4315Y-3.1913
X0.4996Y-0.9394
X0.5217Y-2.7508
X0.6063Y-1.6787
X0.6374Y-0.7063
X0.6382Y-0.3343
X0.7988Y-2.4339
X0.9079Y-2.0224
X0.9217Y-0.9097
X0.9484Y-0.7622
X0.9768Y-3.526
X0.9882Y-0.1628
X0.9965Y-0.9097
X1.0313Y-0.7419
X1.0531Y-2.4043
X1.1535Y-1.2622
X1.1988Y-2.4232
X1.3409Y-2.0224
X1.3594Y-3.1913
X1.4461Y-0.9425
X1.489Y-0.515
X1.5272Y-3.5748
X1.563Y-2.6697
X1.5811Y-0.5165
X1.6161Y-3.1548
X1.6409Y-1.6898
X1.7142Y-2.7508
X1.7713Y-0.6697
X1.7728Y-0.7102
X1.7762Y-0.6278
X1.8339Y-0.2004
X1.9063Y-1.2622
X1.9126Y-3.2075
X2.0146Y-2.4394
X2.0815Y-2.0224
X2.1972Y-0.9437
X2.2787Y-0.515
X2.3965Y-1.698
X2.4732Y-2.7508
X2.5559Y-3.1559
X2.5654Y-3.5976
X2.6539Y-1.2622
X2.6685Y-3.2685
X2.7681Y-2.4445
X2.835Y-2.0224
X2.9406Y-0.9429
X3.0252Y-0.515
X3.1437Y-1.6886
X3.2154Y-2.7508
X3.4008Y-1.2622
X3.5142Y-2.4417
X3.5823Y-2.0224
X3.6898Y-0.9429
X3.7744Y-0.515
X3.887Y-1.6933
X3.9701Y-2.7508
X4.1417Y-1.2622
X4.2579Y-2.4394
X4.3177Y-3.4031
X4.3299Y-2.0224
X4.4461Y-3.3988
X4.4583Y-0.9429
X4.5031Y-3.5043
X4.5287Y-0.515
X4.5457Y-3.6806
X4.563Y-3.1177
X4.6358Y-1.6858
X4.7181Y-2.7508
X4.7969Y-3.5173
X4.7972Y-3.6689
X4.8945Y-1.2622
X5.0138Y-2.4343
X5.0811Y-2.0224
X5.2016Y-0.9354
X5.2803Y-0.515
X5.3843Y-1.6858
X5.4768Y-2.7508
X5.5213Y-3.1543
X5.5646Y-0.1819
X5.6441Y-1.2622
X5.6705Y-3.6039
X5.7669Y-2.4394
X5.8059Y-3.4965
X5.8287Y-2.0224
X5.8646Y-3.4356
X5.8654Y-3.4959
X5.9228Y-3.4969
X5.95Y-0.9402
X5.9736Y-3.6339
X5.9827Y-3.4998
X6.0173Y-3.6181
X6.0287Y-0.515
X6.0402Y-3.5006
X6.0697Y-3.2969
X6.0815Y-3.2224
X6.1303Y-1.6835
X6.1339Y-3.4967
X6.1939Y-3.4967
X6.2016Y-3.2209
X6.2047Y-3.2909
X6.2201Y-2.7508
X6.2516Y-3.4967
X6.274Y-3.126
X6.3047Y-3.6252
X6.311Y-3.4512
X6.3205Y-0.1866
X6.3957Y-1.2622
X6.5181Y-2.4343
X6.5772Y-2.0224
X6.6764Y-3.0378
X6.6988Y-0.9354
X6.7811Y-0.515
X6.8882Y-3.313
X6.8886Y-1.6858
X6.9256Y-3.4945
X6.9449Y-3.2173
X6.9724Y-2.7508
X7.0768Y-0.1941
X7.0921Y-3.3354
X7.1136Y-3.2616
X7.1472Y-1.2622
X7.2122Y-3.4087
X7.2618Y-2.4417
X7.3276Y-2.0224
X7.3413Y-3.3346
X7.4594Y-0.9378
X7.5236Y-0.515
X7.6398Y-1.6886
X7.7122Y-2.7508
X7.8252Y-0.1941
X7.8496Y-3.4949
X7.8984Y-1.2622
X7.9091Y-3.2323
X7.9862Y-3.0079
X8.0126Y-2.437
X8.0795Y-2.0224
X8.1764Y-3.1476
X8.198Y-0.9453
X8.274Y-0.515
X8.3882Y-1.6835
X8.4713Y-2.7508
X8.5114Y-3.1783
X8.5862Y-0.1866
X8.6461Y-1.2622
X8.7535Y-2.4295
X8.8217Y-2.0224
X8.8457Y-3.5791
X8.9539Y-0.9402
X9.022Y-0.515
X9.0602Y-2.885
X9.1091Y-3.1461
X9.1315Y-1.6858
X9.15Y-2.7508
X9.2256Y-3.3126
X9.2327Y-3.5224
X9.2547Y-3.463
X9.3319Y-0.1866
X9.3512Y-3.452
X9.3925Y-1.2622
X9.5067Y-2.0224
X9.665Y-0.515
X9.7075Y-0.9354
X10.0398Y-3.5339
X10.1091Y-3.5256
X10.4281Y-2.4043
X10.461Y-0.6469
X10.4752Y-2.5531
X10.6937Y-0.2642
X10.7697Y-0.2661
X11.1043Y-0.126
X11.111Y-1.0126
T5
X6.3835Y-3.5488
X6.3835Y-3.6308
X6.4622Y-3.5488
X6.4622Y-3.6308
X6.5409Y-3.5488
X6.5409Y-3.6308
X6.6197Y-3.5488
X6.6197Y-3.6308
X6.6984Y-3.5488
X6.6984Y-3.6308
X6.7772Y-3.5488
X6.7772Y-3.6308
T4
G00X0.5453Y-0.048
M15
G01X0.5453Y-0.0717
M16
G05
G00X0.5453Y-0.2028
M15
G01X0.5453Y-0.2461
M16
G05
G00X0.8854Y-0.048
M15
G01X0.8854Y-0.0717
M16
G05
G00X0.8854Y-0.2028
M15
G01X0.8854Y-0.2461
M16
G05
T6
G00X0.9376Y-1.1039
M15
G01X1.036Y-1.1039
M16
G05
G00X0.978Y-3.3539
M15
G01X1.0764Y-3.3539
M16
G05
G00X4.9922Y-1.8461
M15
G01X5.0907Y-1.8461
M16
G05
G00X5.5547Y-1.4652
M15
G01X5.6531Y-1.4652
M16
G05
G00X7.4297Y-3.3461
M15
G01X7.5282Y-3.3461
M16
G05
G00X10.1827Y-1.0902
M15
G01X10.2811Y-1.0902
M16
G05
G00X10.1829Y-3.3539
M15
G01X10.2813Y-3.3539
M16
G05
T0
M30
